/* XPM */
static const char * cmrx_logo_xpm[] = {
"32 32 297 2",
"  	c None",
". 	c #2B3333",
"+ 	c #272F31",
"@ 	c #1D2528",
"# 	c #202629",
"$ 	c #222B2C",
"% 	c #121E20",
"& 	c #131E1F",
"* 	c #121E21",
"= 	c #1F282A",
"- 	c #2B3234",
"; 	c #1A2424",
"> 	c #303A3A",
", 	c #343C3D",
"' 	c #1A2527",
") 	c #20292B",
"! 	c #142122",
"~ 	c #111E21",
"{ 	c #132022",
"] 	c #31383A",
"^ 	c #101D1F",
"/ 	c #2A9255",
"( 	c #27A554",
"_ 	c #206F3F",
": 	c #122221",
"< 	c #162224",
"[ 	c #1F292C",
"} 	c #132024",
"| 	c #D4D8D7",
"1 	c #EFF0F0",
"2 	c #414648",
"3 	c #101D20",
"4 	c #121F23",
"5 	c #401F27",
"6 	c #A02942",
"7 	c #D62C59",
"8 	c #81223B",
"9 	c #2B3435",
"0 	c #101C1F",
"a 	c #299350",
"b 	c #31CA5D",
"c 	c #32C365",
"d 	c #81CD9A",
"e 	c #B8C3BC",
"f 	c #B5B7B4",
"g 	c #8D908E",
"h 	c #D2D5D4",
"i 	c #FEFFFD",
"j 	c #C1C2C1",
"k 	c #B4B5B4",
"l 	c #D2C9CA",
"m 	c #F6A7B2",
"n 	c #FD4F77",
"o 	c #FF2864",
"p 	c #8C1D3A",
"q 	c #1B2628",
"r 	c #0F1B1C",
"s 	c #26884A",
"t 	c #65C67F",
"u 	c #DAF0DF",
"v 	c #FDFEFE",
"w 	c #FEFEFC",
"x 	c #FEFEFB",
"y 	c #FDFEFB",
"z 	c #FEFEFD",
"A 	c #FCF2F2",
"B 	c #FC849D",
"C 	c #901F3C",
"D 	c #121F20",
"E 	c #202A2C",
"F 	c #0F1C1F",
"G 	c #7BA089",
"H 	c #F0F9F4",
"I 	c #FDFFFE",
"J 	c #FDFEFD",
"K 	c #FEFFFC",
"L 	c #FDFFFC",
"M 	c #FDF4F3",
"N 	c #956B72",
"O 	c #192223",
"P 	c #4D5353",
"Q 	c #CFD2D1",
"R 	c #FCFDFB",
"S 	c #F3F3F2",
"T 	c #D0D2D2",
"U 	c #EEEFEF",
"V 	c #FDFEFC",
"W 	c #ECEDEC",
"X 	c #CFD0CF",
"Y 	c #F2F3F2",
"Z 	c #F9FAF7",
"` 	c #C2C4C2",
" .	c #3C4243",
"..	c #20282A",
"+.	c #111F21",
"@.	c #C6CACA",
"#.	c #FEFFFE",
"$.	c #E6E7E5",
"%.	c #3B4142",
"&.	c #9C9F9F",
"*.	c #484D4F",
"=.	c #DADDDD",
"-.	c #FDFFFD",
";.	c #FFFFFE",
">.	c #FFFFFD",
",.	c #D5D6D5",
"'.	c #3D4546",
").	c #4A4E4F",
"!.	c #EAECEC",
"~.	c #C3C7C7",
"{.	c #132021",
"].	c #172022",
"^.	c #6C7171",
"/.	c #D2DAD9",
"(.	c #9EA0A0",
"_.	c #4A4F50",
":.	c #F4F5F5",
"<.	c #6F7374",
"[.	c #7D8282",
"}.	c #FEFFFF",
"|.	c #FFFFFF",
"1.	c #7D8181",
"2.	c #656969",
"3.	c #F0F1F0",
"4.	c #3C4244",
"5.	c #A8ABAB",
"6.	c #BBBFBE",
"7.	c #555D5D",
"8.	c #1A2526",
"9.	c #262C2D",
"0.	c #0F1D1F",
"a.	c #BABDBE",
"b.	c #A0A2A2",
"c.	c #111D20",
"d.	c #0F1D20",
"e.	c #838888",
"f.	c #E8E9E9",
"g.	c #8A8C8D",
"h.	c #858889",
"i.	c #EFF1F1",
"j.	c #808384",
"k.	c #101E1E",
"l.	c #101E1F",
"m.	c #AAAEAE",
"n.	c #A2A4A4",
"o.	c #161F20",
"p.	c #959896",
"q.	c #FCFEFE",
"r.	c #E5E7E5",
"s.	c #3C4143",
"t.	c #0E1C1D",
"u.	c #2D3535",
"v.	c #DBDDDE",
"w.	c #F5F7F6",
"x.	c #717373",
"y.	c #808484",
"z.	c #F7F9F9",
"A.	c #D4D6D6",
"B.	c #182324",
"C.	c #0E1C1E",
"D.	c #444A4B",
"E.	c #E7EAEB",
"F.	c #818585",
"G.	c #1C2526",
"H.	c #151E21",
"I.	c #878E8E",
"J.	c #EEF6F6",
"K.	c #EEF2F3",
"L.	c #F1F3F3",
"M.	c #D5D6D6",
"N.	c #EFF1EF",
"O.	c #A1A2A3",
"P.	c #E9EAEB",
"Q.	c #A7A9A9",
"R.	c #B8BABB",
"S.	c #F2F2F2",
"T.	c #9DA0A0",
"U.	c #EBEEEE",
"V.	c #D3D5D4",
"W.	c #ECF0EE",
"X.	c #EDF5F4",
"Y.	c #7F8888",
"Z.	c #182122",
"`.	c #252B2D",
" +	c #0E1A1C",
".+	c #697376",
"++	c #CCD2D4",
"@+	c #DCF0DE",
"#+	c #3FCA62",
"$+	c #DEF3E4",
"%+	c #B5B6B6",
"&+	c #404446",
"*+	c #454B4B",
"=+	c #464A4A",
"-+	c #565A5B",
";+	c #ADB1B1",
">+	c #FCEBEB",
",+	c #F83D67",
"'+	c #FBE3E6",
")+	c #A3A8A9",
"!+	c #4F5859",
"~+	c #0F1B1B",
"{+	c #232B2B",
"]+	c #121F22",
"^+	c #CACDCC",
"/+	c #F8FCF8",
"(+	c #D2EDD8",
"_+	c #F9FCFA",
":+	c #E9EAE9",
"<+	c #F1F3F2",
"[+	c #EFF1F0",
"}+	c #E0E2E0",
"|+	c #FEFCFA",
"1+	c #FBD2D7",
"2+	c #FDFBFA",
"3+	c #BEBFBF",
"4+	c #141F21",
"5+	c #131D20",
"6+	c #939F9F",
"7+	c #F5FAFA",
"8+	c #FBFDFD",
"9+	c #F5F7F7",
"0+	c #FEFEFE",
"a+	c #F2F2F0",
"b+	c #F1F6F6",
"c+	c #909C9C",
"d+	c #1C2627",
"e+	c #242B2B",
"f+	c #162223",
"g+	c #879595",
"h+	c #8B9495",
"i+	c #E3E6E6",
"j+	c #FCFCFA",
"k+	c #E6E7E6",
"l+	c #7B8689",
"m+	c #859394",
"n+	c #152324",
"o+	c #232B2C",
"p+	c #262D2D",
"q+	c #282F30",
"r+	c #0E1D20",
"s+	c #C6CECF",
"t+	c #F6FAFB",
"u+	c #E8F0F1",
"v+	c #C6CECE",
"w+	c #D2DADC",
"x+	c #D8E2E2",
"y+	c #F4F9F8",
"z+	c #BEC8C9",
"A+	c #1C2628",
"B+	c #1F2728",
"C+	c #1E2529",
"D+	c #40494B",
"E+	c #929F9F",
"F+	c #5C6667",
"G+	c #707778",
"H+	c #DDE7E4",
"I+	c #D5E3E3",
"J+	c #737D7D",
"K+	c #4F5758",
"L+	c #939EA0",
"M+	c #353F40",
"N+	c #1E2829",
"O+	c #212A2A",
"P+	c #152022",
"Q+	c #222A2C",
"R+	c #1C2528",
"S+	c #121F21",
"T+	c #111F22",
"U+	c #172124",
"V+	c #262E31",
"W+	c #142123",
"X+	c #1E2729",
"Y+	c #122021",
"Z+	c #142022",
"`+	c #202B2D",
" @	c #212A2B",
".@	c #111F1F",
"+@	c #122022",
"@@	c #1D282A",
"#@	c #142021",
"$@	c #111F20",
"%@	c #1E292B",
"&@	c #132023",
"*@	c #242C30",
"=@	c #111E20",
"-@	c #222B2D",
";@	c #1E2728",
">@	c #1B2528",
",@	c #192323",
"'@	c #0F1D1D",
")@	c #232D2D",
"!@	c #152121",
"~@	c #101D1D",
"{@	c #172222",
"]@	c #0E191B",
"^@	c #172122",
"              . +             @ #             $                 ",
"              % & * = -     ; > , '     ) ! ~ { ]               ",
"              ^ / ( _ : < [ } | 1 2 3 4 5 6 7 8 9               ",
"              0 a b c d e f g h i j k l m n o p q               ",
"              r s t u v w x y w w w w z i A B C D               ",
"            E F G H I J w w w w w w w w K L M N D               ",
"          O P Q R i S T U z w z z V w W X Y V Z `  ...          ",
"          +.@.#.i $.%.&.*.=.-.i ;.>.,.'.&.).!.w ;.~.{.          ",
"          ].^./.>.(._.:.<.[.}.|.|.|.1.2.3.4.5.w 6.7.8.          ",
"          9.0.a.z b.^ c.d.e.f.g.h.i.j.k.l.0.m.L n.3             ",
"          o.p.q.>.r.s.t.u.v.w.x.y.z.A.B.C.D.E.>.V F.G.          ",
"          H.I.J.K.i L.M.N.O.P.Q.R.S.T.U.V.L.v W.X.Y.Z.          ",
"          `. +.+++@+#+$+i %+&+*+=+-+;+v >+,+'+)+!+~+{+          ",
"              ]+^+/+(+_+z J :+<+[+}+q.w |+1+2+3+4+              ",
"              5+6+7+8+9+0+0+z w J 0+0+L a+b+7+c+d+              ",
"              e+f+g+h+i+>.#.0+i i j+i >.k+l+m+n+o+              ",
"                p+q+r+s+t+u+v+#.#.w+x+y+z+0.A+B+                ",
"                    C+D+E+F+G+H+I+J+K+L+M+N+                    ",
"                      O+P+Q+R+S+T+U+V+W+X+                      ",
"                            G.Y+{                               ",
"                            O+D Z+`+                            ",
"                             @.@+@@@                            ",
"                            #@.@$@%@                            ",
"                            k..@.@&@                            ",
"                            k..@.@+@                            ",
"                          *@k..@.@S+                            ",
"                          ) k..@.@=@-@                          ",
"                          ;@k..@l.l.>@                          ",
"                          ,@k.'@k..@)@                          ",
"                            !@~@k.{@                            ",
"                              ]@^@                              ",
"                                                                "};
