/* XPM */
static const char * green_pill_xpm[] = {
"14 15 179 2",
"  	c None",
". 	c #707068",
"+ 	c #353630",
"@ 	c #0D0D0B",
"# 	c #0E0E10",
"$ 	c #343434",
"% 	c #696864",
"& 	c #757575",
"* 	c #2E2F2A",
"= 	c #42433D",
"- 	c #767674",
"; 	c #8D8C91",
"> 	c #96959B",
", 	c #747476",
"' 	c #4A4A48",
") 	c #27262B",
"! 	c #807E81",
"~ 	c #7C7B80",
"{ 	c #171F21",
"] 	c #505956",
"^ 	c #9EA4A2",
"/ 	c #CBD1D1",
"( 	c #D9DEE4",
"_ 	c #DEE2EB",
": 	c #C5CDD0",
"< 	c #99A29F",
"[ 	c #565E61",
"} 	c #18161B",
"| 	c #867B81",
"1 	c #242A26",
"2 	c #324C38",
"3 	c #718C70",
"4 	c #9DB894",
"5 	c #B9D2AA",
"6 	c #C2DAB7",
"7 	c #C0D8B7",
"8 	c #BAD5B1",
"9 	c #A3BD97",
"0 	c #6A8D6B",
"a 	c #324332",
"b 	c #2C2A2B",
"c 	c #69726F",
"d 	c #1E351D",
"e 	c #3D7029",
"f 	c #62953F",
"g 	c #7EB248",
"h 	c #84B744",
"i 	c #85B742",
"j 	c #86B949",
"k 	c #81B648",
"l 	c #76AD3D",
"m 	c #549833",
"n 	c #3F6E31",
"o 	c #1F3224",
"p 	c #72757A",
"q 	c #2D4030",
"r 	c #375F28",
"s 	c #418510",
"t 	c #559914",
"u 	c #61A204",
"v 	c #6FAE0A",
"w 	c #7AB91B",
"x 	c #72B111",
"y 	c #69AB09",
"z 	c #64AA05",
"A 	c #50A500",
"B 	c #478A20",
"C 	c #2D5729",
"D 	c #30453C",
"E 	c #102F0B",
"F 	c #3F7824",
"G 	c #58A012",
"H 	c #66AC19",
"I 	c #72B21D",
"J 	c #85C031",
"K 	c #88C337",
"L 	c #83C035",
"M 	c #86C635",
"N 	c #77BC21",
"O 	c #63AC00",
"P 	c #59A016",
"Q 	c #407925",
"R 	c #0D2D0B",
"S 	c #133A0C",
"T 	c #4A8F26",
"U 	c #6BB308",
"V 	c #7ABD1E",
"W 	c #93CF3B",
"X 	c #9CD24D",
"Y 	c #A0D358",
"Z 	c #A3DA5E",
"` 	c #9AD44B",
" .	c #8DCD38",
"..	c #88C11C",
"+.	c #74B420",
"@.	c #538F22",
"#.	c #193D03",
"$.	c #3D5834",
"%.	c #599508",
"&.	c #87BE2D",
"*.	c #95D040",
"=.	c #A0DD53",
"-.	c #AFE966",
";.	c #B4E96B",
">.	c #B1E86A",
",.	c #AFED69",
"'.	c #97DF50",
").	c #8FD345",
"!.	c #80C432",
"~.	c #5C9024",
"{.	c #465F36",
"].	c #75896F",
"^.	c #57881F",
"/.	c #84C136",
"(.	c #9DDC52",
"_.	c #AAE95F",
":.	c #BCF76E",
"<.	c #C4F86C",
"[.	c #C5F86A",
"}.	c #C6FF72",
"|.	c #AFED60",
"1.	c #9EDF52",
"2.	c #8AC931",
"3.	c #578615",
"4.	c #738669",
"5.	c #A6B2A8",
"6.	c #476829",
"7.	c #81BC2C",
"8.	c #A7E561",
"9.	c #BBF87D",
"0.	c #C1F87F",
"a.	c #D1FF83",
"b.	c #D5FF7F",
"c.	c #C9F876",
"d.	c #C4F877",
"e.	c #A9E75A",
"f.	c #86B836",
"g.	c #53701F",
"h.	c #ACB4A7",
"i.	c #8D9C84",
"j.	c #548012",
"k.	c #97C85B",
"l.	c #BCEF7E",
"m.	c #CEFD8B",
"n.	c #D6FE8D",
"o.	c #D5FA87",
"p.	c #D5FE87",
"q.	c #C5F27A",
"r.	c #A1D459",
"s.	c #5D7C2F",
"t.	c #919B81",
"u.	c #D4D5D7",
"v.	c #8A9880",
"w.	c #6A8449",
"x.	c #84A848",
"y.	c #B0D665",
"z.	c #C1E277",
"A.	c #C4E481",
"B.	c #AED26E",
"C.	c #8AB447",
"D.	c #688745",
"E.	c #8C9A7F",
"F.	c #D6D6D8",
"G.	c #DAD6D3",
"H.	c #BEC3BF",
"I.	c #889583",
"J.	c #6B7D51",
"K.	c #677D35",
"L.	c #657B31",
"M.	c #708753",
"N.	c #7B9378",
"O.	c #BDC6C3",
"P.	c #D3D8D1",
"Q.	c #D9E0D9",
"R.	c #DEE5DE",
"S.	c #E2E4E3",
"T.	c #E3E2E7",
"U.	c #DCDDDF",
"V.	c #DBE1DF",
"        . + @ # $ %         ",
"    & * = - ; > , ' ) !     ",
"  ~ { ] ^ / ( _ : < [ } |   ",
"  1 2 3 4 5 6 7 8 9 0 a b   ",
"c d e f g h i j k l m n o p ",
"q r s t u v w x y z A B C D ",
"E F G H I J K L M N O P Q R ",
"S T U V W X Y Z `  ...+.@.#.",
"$.%.&.*.=.-.;.>.,.'.).!.~.{.",
"].^./.(._.:.<.[.}.|.1.2.3.4.",
"5.6.7.8.9.0.a.b.c.d.e.f.g.h.",
"  i.j.k.l.m.n.o.p.q.r.s.t.  ",
"  u.v.w.x.y.z.A.B.C.D.E.F.  ",
"    G.H.I.J.K.L.M.N.O.P.    ",
"        Q.R.S.T.U.V.        "};
