/* XPM */
static const char * red_pill_xpm[] = {
"14 15 178 2",
"  	c None",
". 	c #66656A",
"+ 	c #363437",
"@ 	c #110C10",
"# 	c #110D0E",
"$ 	c #393536",
"% 	c #6C6B69",
"& 	c #7B7B7B",
"* 	c #363233",
"= 	c #4D4449",
"- 	c #7B7579",
"; 	c #959192",
"> 	c #979193",
", 	c #80777A",
"' 	c #443B3E",
") 	c #3A3434",
"! 	c #7E7A79",
"~ 	c #767875",
"{ 	c #1D1513",
"] 	c #655756",
"^ 	c #B29F9F",
"/ 	c #D7CDCB",
"( 	c #E8E5E0",
"_ 	c #E3DEDB",
": 	c #DCCDCD",
"< 	c #B09FA0",
"[ 	c #5F5554",
"} 	c #181713",
"| 	c #7F7D7E",
"1 	c #3C2E2D",
"2 	c #5A3232",
"3 	c #9D686B",
"4 	c #CA908E",
"5 	c #DAAEA7",
"6 	c #DBB9B1",
"7 	c #DCB8B1",
"8 	c #E0AEAD",
"9 	c #CC9697",
"0 	c #9A6D6D",
"a 	c #5D3A37",
"b 	c #3A2A2B",
"c 	c #78736F",
"d 	c #4C1D1E",
"e 	c #923B41",
"f 	c #A53B40",
"g 	c #C75250",
"h 	c #CF6662",
"i 	c #C1665E",
"j 	c #C1645F",
"k 	c #CC5F5F",
"l 	c #C14D51",
"m 	c #A93D3F",
"n 	c #963434",
"o 	c #481D1D",
"p 	c #7B6D6D",
"q 	c #4B3230",
"r 	c #742125",
"s 	c #A22328",
"t 	c #B12626",
"u 	c #C1342E",
"v 	c #C54339",
"w 	c #C44A3F",
"x 	c #C74A42",
"y 	c #C7423D",
"z 	c #BF322E",
"A 	c #B12621",
"B 	c #A82119",
"C 	c #742624",
"D 	c #573836",
"E 	c #421515",
"F 	c #93262A",
"G 	c #B72824",
"H 	c #C73729",
"I 	c #CB4C41",
"J 	c #D65A4E",
"K 	c #D96154",
"L 	c #D45B4E",
"M 	c #D95C4E",
"N 	c #D75447",
"O 	c #C33B30",
"P 	c #B42A1E",
"Q 	c #912522",
"R 	c #46140E",
"S 	c #480F0F",
"T 	c #A52B2C",
"U 	c #CD3B30",
"V 	c #D95439",
"W 	c #E1675C",
"X 	c #F1796D",
"Y 	c #F47C6F",
"Z 	c #EA7162",
"` 	c #E26356",
" .	c #D54D40",
"..	c #D14338",
"+.	c #AD2D27",
"@.	c #450903",
"#.	c #6E3A36",
"$.	c #A7342D",
"%.	c #D55847",
"&.	c #E26A55",
"*.	c #F27170",
"=.	c #FC867F",
"-.	c #F88A7E",
";.	c #FD8E80",
">.	c #FF8679",
",.	c #F9776E",
"'.	c #EA6A61",
").	c #CF524A",
"!.	c #B12C28",
"~.	c #663D32",
"{.	c #90726B",
"].	c #9D282A",
"^.	c #DE5C53",
"/.	c #F27968",
"(.	c #FC8A81",
"_.	c #FC9088",
":.	c #FC988F",
"<.	c #FF9C93",
"[.	c #FE968C",
"}.	c #F28576",
"|.	c #F07D6C",
"1.	c #D96550",
"2.	c #992D2A",
"3.	c #94756A",
"4.	c #B8ADA9",
"5.	c #7C3636",
"6.	c #CB4D50",
"7.	c #F68175",
"8.	c #FA9588",
"9.	c #FCA195",
"0.	c #F7A89F",
"a.	c #F9B3A9",
"b.	c #F1A296",
"c.	c #FC9B8F",
"d.	c #FA8373",
"e.	c #DD5645",
"f.	c #793631",
"g.	c #B6A8A0",
"h.	c #978E87",
"i.	c #823133",
"j.	c #D86F6B",
"k.	c #F7978E",
"l.	c #F5A398",
"m.	c #FCBAAD",
"n.	c #F7B7AB",
"o.	c #F6ABA3",
"p.	c #F59A95",
"q.	c #DD7770",
"r.	c #962B21",
"s.	c #A88B87",
"t.	c #D1DAD5",
"u.	c #9C8A83",
"v.	c #894B49",
"w.	c #AE5D58",
"x.	c #D29086",
"y.	c #D99F91",
"z.	c #E6A499",
"A.	c #DB8B88",
"B.	c #A95F5F",
"C.	c #845753",
"D.	c #A18F87",
"E.	c #D9D5D2",
"F.	c #DBDDD8",
"G.	c #C9C2BC",
"H.	c #968378",
"I.	c #7F5952",
"J.	c #7F4843",
"K.	c #7D4A42",
"L.	c #815F55",
"M.	c #958B82",
"N.	c #C3C3C1",
"O.	c #D4D5D9",
"P.	c #E3D9DA",
"Q.	c #E5E4E0",
"R.	c #E0E5DE",
"S.	c #E3E3DB",
"T.	c #E5DBD9",
"U.	c #E4D8DA",
"        . + @ # $ %         ",
"    & * = - ; > , ' ) !     ",
"  ~ { ] ^ / ( _ : < [ } |   ",
"  1 2 3 4 5 6 7 8 9 0 a b   ",
"c d e f g h i j k l m n o p ",
"q r s t u v w x y z A B C D ",
"E F G H I J K L M N O P Q R ",
"S T U V W W X Y Z `  ...+.@.",
"#.$.%.&.*.=.-.;.>.,.'.).!.~.",
"{.].^./.(._.:.<.[.}.|.1.2.3.",
"4.5.6.7.8.9.0.a.b.c.d.e.f.g.",
"  h.i.j.k.l.m.n.o.p.q.r.s.  ",
"  t.u.v.w.x.y.z.A.B.C.D.E.  ",
"    F.G.H.I.J.K.L.M.N.O.    ",
"        P.Q.R.S.T.U.        "};
