/* XPM */
static const char * silver_pill_xpm[] = {
"14 15 108 2",
"  	c None",
". 	c #7E7E7E",
"+ 	c #4C4C4C",
"@ 	c #2A2A2A",
"# 	c #2D2D2D",
"$ 	c #4D4D4D",
"% 	c #797979",
"& 	c #868686",
"* 	c #464646",
"= 	c #575757",
"- 	c #9C9C9C",
"; 	c #A5A5A5",
"> 	c #5F5F5F",
", 	c #434343",
"' 	c #8F8F8F",
") 	c #8D8D8D",
"! 	c #383838",
"~ 	c #696969",
"{ 	c #ADADAD",
"] 	c #D4D4D4",
"^ 	c #E2E2E2",
"/ 	c #E8E8E8",
"( 	c #D1D1D1",
"_ 	c #A9A9A9",
": 	c #707070",
"< 	c #353535",
"[ 	c #909090",
"} 	c #424242",
"| 	c #8E8E8E",
"1 	c #B1B1B1",
"2 	c #C6C6C6",
"3 	c #CFCFCF",
"4 	c #CECECE",
"5 	c #CACACA",
"6 	c #B4B4B4",
"7 	c #8C8C8C",
"8 	c #535353",
"9 	c #454545",
"0 	c #7F7F7F",
"a 	c #626262",
"b 	c #7C7C7C",
"c 	c #787878",
"d 	c #656565",
"e 	c #878787",
"f 	c #4F4F4F",
"g 	c #5B5B5B",
"h 	c #616161",
"i 	c #6B6B6B",
"j 	c #686868",
"k 	c #747474",
"l 	c #6E6E6E",
"m 	c #6C6C6C",
"n 	c #6A6A6A",
"o 	c #393939",
"p 	c #646464",
"q 	c #6D6D6D",
"r 	c #767676",
"s 	c #7A7A7A",
"t 	c #898989",
"u 	c #8B8B8B",
"v 	c #808080",
"w 	c #6F6F6F",
"x 	c #3E3E3E",
"y 	c #717171",
"z 	c #949494",
"A 	c #9D9D9D",
"B 	c #A2A2A2",
"C 	c #A8A8A8",
"D 	c #929292",
"E 	c #3B3B3B",
"F 	c #5D5D5D",
"G 	c #979797",
"H 	c #B2B2B2",
"I 	c #B5B5B5",
"J 	c #A4A4A4",
"K 	c #9A9A9A",
"L 	c #AFAFAF",
"M 	c #BCBCBC",
"N 	c #BBBBBB",
"O 	c #C1C1C1",
"P 	c #636363",
"Q 	c #888888",
"R 	c #B6B6B6",
"S 	c #858585",
"T 	c #AEAEAE",
"U 	c #C3C3C3",
"V 	c #C4C4C4",
"W 	c #C9C9C9",
"X 	c #C7C7C7",
"Y 	c #C0C0C0",
"Z 	c #ACACAC",
"` 	c #5E5E5E",
" .	c #B8B8B8",
"..	c #9E9E9E",
"+.	c #9F9F9F",
"@.	c #BFBFBF",
"#.	c #CBCBCB",
"$.	c #CDCDCD",
"%.	c #C8C8C8",
"&.	c #A3A3A3",
"*.	c #DBDBDB",
"=.	c #B7B7B7",
"-.	c #9B9B9B",
";.	c #DCDCDC",
">.	c #DADADA",
",.	c #E1E1E1",
"'.	c #E5E5E5",
").	c #E6E6E6",
"        . + @ # $ %         ",
"    & * = & - ; & > , '     ",
"  ) ! ~ { ] ^ / ( _ : < [   ",
"  } = | 1 2 3 4 5 6 7 8 9   ",
"0 , a b ) ) ) [ ' & c d , e ",
"f g h i j : b k l m j n = 8 ",
"o p q r s t ) u ) v i w d ! ",
"x w y 0 z A B C A D v b q E ",
"F p & G ; H 6 6 I J K u l h ",
"7 ~ 7 J L M N N O 1 ; ) P Q ",
"R > S T U V W X Y Y Z Q `  .",
"  ..> +.@.#.$.%.5 @.&.n -   ",
"  *.K % t _ =.M Z ) % -.;.  ",
"    *.%.K s q i 0 z W >.    ",
"        ,.'.)./ ^ ^         "};
