/* XPM */
static const char * window_xpm[] = {
"32 32 220 2",
"  	c None",
". 	c #000000",
"+ 	c #3276A3",
"@ 	c #3E8EC3",
"# 	c #3C8BBF",
"$ 	c #235779",
"% 	c #4297CF",
"& 	c #20506F",
"* 	c #3D8CC0",
"= 	c #2B678F",
"- 	c #3B89BD",
"; 	c #2C6A93",
"> 	c #347AA9",
", 	c #3479A7",
"' 	c #3985B6",
") 	c #4093CA",
"! 	c #4093C9",
"~ 	c #3C8ABE",
"{ 	c #3F90C6",
"] 	c #4296CE",
"^ 	c #30719C",
"/ 	c #205171",
"( 	c #0C2738",
"_ 	c #2C6A92",
": 	c #3C5F66",
"< 	c #649BA5",
"[ 	c #659CA7",
"} 	c #639CA6",
"| 	c #55959F",
"1 	c #55949E",
"2 	c #3F7179",
"3 	c #1E4B6C",
"4 	c #73B1BC",
"5 	c #6CA7B2",
"6 	c #75B4C0",
"7 	c #74B3BF",
"8 	c #77B8C4",
"9 	c #6BA5B0",
"0 	c #85CCD9",
"a 	c #84CBD8",
"b 	c #74C4D1",
"c 	c #70C2CF",
"d 	c #68B5C1",
"e 	c #3F8EC9",
"f 	c #1C476A",
"g 	c #6AB8C4",
"h 	c #3E8CC8",
"i 	c #6EAAB5",
"j 	c #6299A3",
"k 	c #59949F",
"l 	c #53929C",
"m 	c #599CA7",
"n 	c #5E929C",
"o 	c #466F77",
"p 	c #446E76",
"q 	c #3B6A72",
"r 	c #48818A",
"s 	c #76B6C2",
"t 	c #85CBD8",
"u 	c #5C909A",
"v 	c #446C74",
"w 	c #639AA4",
"x 	c #792344",
"y 	c #300918",
"z 	c #6FACB7",
"A 	c #78B9C5",
"B 	c #74B2BE",
"C 	c #192B2E",
"D 	c #7BBDC9",
"E 	c #E34A85",
"F 	c #601B35",
"G 	c #69A3AE",
"H 	c #69B1BD",
"I 	c #183135",
"J 	c #669EA8",
"K 	c #55858E",
"L 	c #70ADB8",
"M 	c #232B30",
"N 	c #A73461",
"O 	c #3A0D1E",
"P 	c #320A19",
"Q 	c #902C53",
"R 	c #A83561",
"S 	c #4A1228",
"T 	c #010000",
"U 	c #A73460",
"V 	c #3E0E20",
"W 	c #60959F",
"X 	c #7CBECB",
"Y 	c #182A2E",
"Z 	c #B43968",
"` 	c #D5457D",
" .	c #DB4780",
"..	c #DF4983",
"+.	c #CF4379",
"@.	c #C94175",
"#.	c #60A7B3",
"$.	c #4F7C84",
"%.	c #6C1F3D",
"&.	c #E14984",
"*.	c #D6457D",
"=.	c #AE3765",
"-.	c #AA3562",
";.	c #D1437A",
">.	c #DE4882",
",.	c #8D2B50",
"'.	c #315A60",
").	c #6DBCC9",
"!.	c #4C1329",
"~.	c #B63A6A",
"{.	c #191318",
"].	c #3E6F77",
"^.	c #40737B",
"/.	c #992F58",
"(.	c #D9477F",
"_.	c #70213F",
":.	c #5596A0",
"<.	c #6DA8B3",
"[.	c #304E54",
"}.	c #21373B",
"|.	c #A4335E",
"1.	c #CD4278",
"2.	c #162E32",
"3.	c #65B1BC",
"4.	c #6BBAC6",
"5.	c #274A4F",
"6.	c #B13867",
"7.	c #B33968",
"8.	c #112427",
"9.	c #284A50",
"0.	c #802649",
"a.	c #C84074",
"b.	c #9E315B",
"c.	c #4A838C",
"d.	c #772343",
"e.	c #BF3E6F",
"f.	c #8B2A50",
"g.	c #467C85",
"h.	c #922D54",
"i.	c #8E2B51",
"j.	c #508E98",
"k.	c #61AAB5",
"l.	c #712140",
"m.	c #9F325C",
"n.	c #4E142A",
"o.	c #7C2546",
"p.	c #C84075",
"q.	c #B23867",
"r.	c #37646C",
"s.	c #488089",
"t.	c #8C2B50",
"u.	c #CD4277",
"v.	c #7A2445",
"w.	c #55172F",
"x.	c #7DC0CC",
"y.	c #4E7981",
"z.	c #86284C",
"A.	c #631B37",
"B.	c #437780",
"C.	c #67B2BE",
"D.	c #69B7C3",
"E.	c #508E97",
"F.	c #3B0D1E",
"G.	c #CC4277",
"H.	c #9A3059",
"I.	c #37646B",
"J.	c #54939D",
"K.	c #66B1BD",
"L.	c #65A9B4",
"M.	c #DF4982",
"N.	c #D3457B",
"O.	c #892A4E",
"P.	c #270613",
"Q.	c #080103",
"R.	c #7B2546",
"S.	c #C74174",
"T.	c #55172E",
"U.	c #52909A",
"V.	c #6EB8C5",
"W.	c #C33F72",
"X.	c #020102",
"Y.	c #60A8B3",
"Z.	c #24597C",
"`.	c #31739E",
" +	c #3B86C0",
".+	c #6EBFCC",
"++	c #39676F",
"@+	c #732241",
"#+	c #D5467C",
"$+	c #962E56",
"%+	c #CE4378",
"&+	c #D2447B",
"*+	c #AB3663",
"=+	c #83274A",
"-+	c #2E555B",
";+	c #6CBBC8",
">+	c #081F31",
",+	c #6EBECB",
"'+	c #431024",
")+	c #40727A",
"!+	c #19030A",
"~+	c #651D38",
"{+	c #356067",
"]+	c #3D6D75",
"^+	c #3D0E20",
"/+	c #6CBBC7",
"(+	c #518F98",
"_+	c #BF3D6F",
":+	c #4F152B",
"<+	c #62ABB6",
"[+	c #6FC1CE",
"}+	c #53919B",
"|+	c #65AFBB",
"1+	c #73B3BE",
"2+	c #3A6970",
"3+	c #39676E",
"4+	c #477F88",
"5+	c #477B84",
"6+	c #67B3BF",
"7+	c #518F99",
"                                                                ",
"  . . . . . . . . . . . . . . . . . . . . . . . . . .           ",
". + @ @ @ @ @ @ @ @ @ @ @ @ @ @ @ @ @ @ @ @ @ @ @ # $ .         ",
". % & * = - ; > % % % % % % % % % % % % % % % % % % , .         ",
". % ' ) - ! ~ @ % % % % % % % % % % % % % % % % % % {           ",
". % % % ] ^ / & & & & & & & & & & & & & & & & & & & & ( . . .   ",
". % % % _ : < [ [ [ [ [ [ [ [ [ [ [ [ [ [ [ [ [ [ [ [ } | 1 2 . ",
". % % ] 3 4 5 6 7 7 8 9 0 0 0 0 0 0 0 0 0 0 0 0 0 0 a b c c d . ",
". % % e f 7 5 6 7 7 8 9 0 0 0 0 0 0 0 0 0 0 0 0 0 a b c c c g . ",
". % % h f 7 i j j j j j j j j j j j j j j j j j j k l l l m g . ",
". % % h f 7 n o o o o o o o o o o o o o o o o p q q q q q r g . ",
". % % h f 7 0 0 0 0 0 0 0 0 0 0 s 7 7 7 t 0 a b c c c c c c g . ",
". % % h f 7 u v v v w 0 0 0 0 0 . x x y 7 a b c c c c c c c g . ",
". % % h f 7 s z z z A 0 B C 9 D . E E F G H I m c c c c c c g . ",
". % % h f 7 J K K L 0 B M N O P Q E E R S T U V m c c c c c g . ",
". % % h f 7 5 W W 7 X Y Z E `  .E E E E ..+.E @.. #.c c c c g . ",
". % % h f 7 0 0 0 0 a $.%.&.E E *.=.-.;.E E >.,.'.).c c c c g . ",
". % % h f 7 0 0 0 0 0 4 !.&.E ~.{.].^.I /...(._.:.c c c c c g . ",
". % % h f 7 0 0 0 <.[.}.|.E 1.2.3.c c 4.5.6.(.7.8.9.l c c c g . ",
". % % h f 7 0 0 0 W 0.a.>.E b.c.c c c c m d.(.(.e.f.g.c c c g . ",
". % % h f 7 0 0 0 W h.E E E i.j.c c c c k.l.(.(.(.m.g.c c c g . ",
". % % h f 7 0 0 0 W n.o.p.E q.r.c c c c s.t.(.u.v.w.g.c c c g . ",
". % % h f 7 0 0 0 x.< y.z.E >.A.B.C.D.E.F.G.(.H.I.J.K.c c c g . ",
". % % h f 7 0 0 0 0 a L.. M.&.N.O.P.Q.R.S.(.(.T.U.c c c c c g . ",
". ] % h f 7 0 0 0 a V.I q.>.(.(.(.(.(.(.(.(.(.W.X.Y.c c c c g . ",
". Z.`. +f 7 0 0 a b .+++@+#+$+m.%+(.(.&+*+=+N.t.-+;+c c c c g . ",
"  . .   >+7 0 a b c c ,+++'+'.)+!+(.(.~+{+]+^+-+/+c c c c c g . ",
"        . 7 a b c c c c ,+(+).c . _+_+:+<+[+}+/+c c 4.<+<+|+g . ",
"        . 1+b c c c c c c c c c 2+3+3+3+d c c c c c #.3+3+4+g . ",
"        . 5+6+d d d d d d d d d d d d d d d d d d d d d d d 7+. ",
"          . . . . . . . . . . . . . . . . . . . . . . . . . .   ",
"                                                                "};
