/* XPM */
static const char * yellow_pill_xpm[] = {
"14 15 176 2",
"  	c None",
". 	c #6E6B66",
"+ 	c #37322F",
"@ 	c #191411",
"# 	c #1D0C12",
"$ 	c #3A3637",
"% 	c #6B6768",
"& 	c #7E7975",
"* 	c #472C2B",
"= 	c #5C433F",
"- 	c #8D7877",
"; 	c #A18D8F",
"> 	c #9B928D",
", 	c #897672",
"' 	c #614B48",
") 	c #44292C",
"! 	c #7E7A79",
"~ 	c #7E7A7B",
"{ 	c #36181D",
"] 	c #81575B",
"^ 	c #C29A9D",
"/ 	c #DFC7CF",
"( 	c #ECDAE8",
"_ 	c #EADEE2",
": 	c #E2C4C8",
"< 	c #C49F9F",
"[ 	c #7F5158",
"} 	c #3C1D27",
"| 	c #74797D",
"1 	c #4B222A",
"2 	c #7F3F3F",
"3 	c #BA806D",
"4 	c #E5B498",
"5 	c #E9CDB1",
"6 	c #EFD5C0",
"7 	c #F1D0BA",
"8 	c #F0CDAF",
"9 	c #DDB292",
"0 	c #844144",
"a 	c #4E252E",
"b 	c #7E7674",
"c 	c #5F1E13",
"d 	c #B15D33",
"e 	c #C58030",
"f 	c #DD9F3A",
"g 	c #DEA83E",
"h 	c #E2A643",
"i 	c #DFA545",
"j 	c #D9AC41",
"k 	c #D89E3A",
"l 	c #C3822F",
"m 	c #B25A32",
"n 	c #71261D",
"o 	c #7D7371",
"p 	c #573B33",
"q 	c #92441F",
"r 	c #CB6E1A",
"s 	c #DC8D08",
"t 	c #DE9400",
"u 	c #E89C00",
"v 	c #F09F0A",
"w 	c #ECA119",
"x 	c #E6A211",
"y 	c #E69000",
"z 	c #DC8B06",
"A 	c #CC721A",
"B 	c #9B491E",
"C 	c #513D2E",
"D 	c #561C07",
"E 	c #B55F19",
"F 	c #DF870C",
"G 	c #E69500",
"H 	c #EFA519",
"I 	c #F3A826",
"J 	c #F8B235",
"K 	c #F7B337",
"L 	c #FCAE31",
"M 	c #F6A317",
"N 	c #E99200",
"O 	c #E68E10",
"P 	c #B26016",
"Q 	c #52210A",
"R 	c #762D08",
"S 	c #D2801D",
"T 	c #E79A00",
"U 	c #FDAE0D",
"V 	c #FFBB30",
"W 	c #FFBD3D",
"X 	c #FCC744",
"Y 	c #F8C942",
"Z 	c #FFC23C",
"` 	c #FFC32C",
" .	c #FDAD00",
"..	c #F19B00",
"+.	c #DA8323",
"@.	c #7B280E",
"#.	c #7F543A",
"$.	c #C88015",
"%.	c #F8B11B",
"&.	c #F8BD3D",
"*.	c #FBCE49",
"=.	c #FBD44A",
"-.	c #FFDD64",
";.	c #FADF68",
">.	c #FBDB52",
",.	c #FCCF45",
"'.	c #FCBC40",
").	c #FFB12C",
"!.	c #CD8211",
"~.	c #825838",
"{.	c #967670",
"].	c #B88017",
"^.	c #F6B234",
"/.	c #FFC650",
"(.	c #FFDA47",
"_.	c #FFE566",
":.	c #FFE775",
"<.	c #FEEC7A",
"[.	c #FFEB6A",
"}.	c #FFD94A",
"|.	c #FFC751",
"1.	c #FEB730",
"2.	c #BA8017",
"3.	c #957475",
"4.	c #B4A9A3",
"5.	c #906D1D",
"6.	c #DAA525",
"7.	c #FFCF5C",
"8.	c #FFE677",
"9.	c #FFF278",
"0.	c #FFFD80",
"a.	c #FFF98A",
"b.	c #FFF671",
"c.	c #FFE967",
"d.	c #FFD35B",
"e.	c #E0AD30",
"f.	c #936E29",
"g.	c #B9AAA9",
"h.	c #A19075",
"i.	c #997A18",
"j.	c #DEBC47",
"k.	c #F5E46C",
"l.	c #F4F473",
"m.	c #FEFC8E",
"n.	c #FFFD89",
"o.	c #FAF881",
"p.	c #F8EC70",
"q.	c #E1C939",
"r.	c #988115",
"s.	c #9C8E7C",
"t.	c #DFE0DA",
"u.	c #9E8C81",
"v.	c #87744A",
"w.	c #AFAC45",
"x.	c #CED25A",
"y.	c #E5E679",
"z.	c #E9E385",
"A.	c #D4D85E",
"B.	c #B1B632",
"C.	c #88803D",
"D.	c #988F8A",
"E.	c #DBDCE1",
"F.	c #D9D7E5",
"G.	c #C2BBCC",
"H.	c #969383",
"I.	c #838246",
"J.	c #7A7631",
"K.	c #7C772F",
"L.	c #939183",
"M.	c #C1BEC7",
"N.	c #D7DBDC",
"O.	c #E6E1DD",
"P.	c #EBE2E7",
"Q.	c #EBE4F5",
"R.	c #E6E4D6",
"S.	c #D8D5DC",
"        . + @ # $ %         ",
"    & * = - ; > , ' ) !     ",
"  ~ { ] ^ / ( _ : < [ } |   ",
"  1 2 3 4 5 6 7 8 9 3 0 a   ",
"b c d e f g h i j k l m n o ",
"p q r s t u v w x y z A B C ",
"D E F G H I J K L M N O P Q ",
"R S T U V W X Y Z `  ...+.@.",
"#.$.%.&.*.=.-.;.>.,.'.).!.~.",
"{.].^./.(._.:.<.[.}.|.1.2.3.",
"4.5.6.7.8.9.0.a.b.c.d.e.f.g.",
"  h.i.j.k.l.m.n.o.p.q.r.s.  ",
"  t.u.v.w.x.y.z.A.B.C.D.E.  ",
"    F.G.H.I.J.K.I.L.M.N.    ",
"        F.O.P.Q.R.S.        "};
