/* XPM */
static char * bomb_xpm[] = {
"64 64 176 2",
"  	c None",
". 	c #000000",
"+ 	c #286681",
"@ 	c #49AED9",
"# 	c #4DB7E5",
"$ 	c #49ADD9",
"% 	c #4BB3E0",
"& 	c #48ADD9",
"* 	c #194F7A",
"= 	c #3188CE",
"- 	c #348FD9",
"; 	c #4BB4E1",
"> 	c #3086CD",
", 	c #3187CE",
"' 	c #4CB4E2",
") 	c #398CB0",
"! 	c #49AFDB",
"~ 	c #49AEDA",
"{ 	c #4CB5E2",
"] 	c #48ADDA",
"^ 	c #398BAF",
"/ 	c #1C4D62",
"( 	c #1C4C61",
"_ 	c #3A8CB0",
": 	c #4CB5E3",
"< 	c #48AEDA",
"[ 	c #398CAF",
"} 	c #4CB6E3",
"| 	c #4CB6E4",
"1 	c #49AEDB",
"2 	c #4DB6E4",
"3 	c #4BB2DF",
"4 	c #02080B",
"5 	c #44A4CE",
"6 	c #184255",
"7 	c #337E9E",
"8 	c #2B6D8A",
"9 	c #2770AB",
"0 	c #2D708D",
"a 	c #1E5066",
"b 	c #0C2935",
"c 	c #010101",
"d 	c #010203",
"e 	c #0E2C39",
"f 	c #1E5168",
"g 	c #2D718F",
"h 	c #3B91B6",
"i 	c #47AAD5",
"j 	c #09232E",
"k 	c #3F99C0",
"l 	c #2C7BBC",
"m 	c #194E79",
"n 	c #01050C",
"o 	c #030E14",
"p 	c #296883",
"q 	c #42A0C8",
"r 	c #45A5CF",
"s 	c #1B4B5F",
"t 	c #3085CA",
"u 	c #184C76",
"v 	c #04060A",
"w 	c #1F2835",
"x 	c #2D3A4B",
"y 	c #364458",
"z 	c #3A495E",
"A 	c #3C4C62",
"B 	c #39495E",
"C 	c #354357",
"D 	c #2D394A",
"E 	c #1E2734",
"F 	c #030508",
"G 	c #0E2C3A",
"H 	c #151C26",
"I 	c #1A495D",
"J 	c #45A7D2",
"K 	c #051B2E",
"L 	c #090E14",
"M 	c #2A3646",
"N 	c #3A4A5F",
"O 	c #3D4D63",
"P 	c #293545",
"Q 	c #080C12",
"R 	c #419CC4",
"S 	c #222C39",
"T 	c #2C394A",
"U 	c #1A485C",
"V 	c #44A5CF",
"W 	c #030407",
"X 	c #2E3B4C",
"Y 	c #354356",
"Z 	c #020304",
"` 	c #3B4A60",
" .	c #1C4B60",
"..	c #313F51",
"+.	c #3C4B61",
"@.	c #25303F",
"#.	c #39495D",
"$.	c #1B2430",
"%.	c #26303F",
"&.	c #18202B",
"*.	c #202A37",
"=.	c #3A495F",
"-.	c #222C3A",
";.	c #111821",
">.	c #37465A",
",.	c #0C2936",
"'.	c #090E15",
").	c #242E3C",
"!.	c #39485D",
"~.	c #070B11",
"{.	c #3E97BD",
"].	c #344255",
"^.	c #04070B",
"/.	c #37455A",
"(.	c #293544",
"_.	c #26627C",
":.	c #47ADD9",
"<.	c #040609",
"[.	c #19212D",
"}.	c #020406",
"|.	c #141414",
"1.	c #D5D5D3",
"2.	c #E0E0DE",
"3.	c #364558",
"4.	c #0A0F15",
"5.	c #3B4B60",
"6.	c #1D2633",
"7.	c #B2B2B0",
"8.	c #2D394B",
"9.	c #293444",
"0.	c #2C3849",
"a.	c #8C8C8A",
"b.	c #1F2936",
"c.	c #324053",
"d.	c #656564",
"e.	c #3B4A5F",
"f.	c #3C4C61",
"g.	c #383838",
"h.	c #7E7E7D",
"i.	c #030304",
"j.	c #D6D6D4",
"k.	c #39485C",
"l.	c #323232",
"m.	c #8B8B89",
"n.	c #354457",
"o.	c #344356",
"p.	c #5F5F5E",
"q.	c #B4B4B3",
"r.	c #8A8A89",
"s.	c #DBDBD9",
"t.	c #2A2A2A",
"u.	c #1E2834",
"v.	c #1D2632",
"w.	c #B1B1AF",
"x.	c #020305",
"y.	c #0E0E0D",
"z.	c #B0B0AE",
"A.	c #283444",
"B.	c #7E7E7C",
"C.	c #D4D4D2",
"D.	c #020202",
"E.	c #080C13",
"F.	c #070A10",
"G.	c #C2C2C0",
"H.	c #666665",
"I.	c #212B38",
"J.	c #202936",
"K.	c #7A7A79",
"L.	c #A2A2A1",
"M.	c #2F2F2F",
"N.	c #D1D1CF",
"O.	c #313E50",
"P.	c #303D4F",
"Q.	c #B5B5B3",
"R.	c #010204",
"S.	c #070B10",
"                                                                                                                                ",
"                                                                                                                                ",
"                                . . . . . . . . . . . . . . . . . . . . . . . . . . . . . . . . . . . . . .                     ",
"                              . . . . . . . . . . . . . . . . . . . . . . . . . . . . . . . . . . . . . . . .                   ",
"                            . . + @ # # # # # # # # # # # # # # # # # # # # # # # # # # # # # # # # # # @ + . .                 ",
"                            . . @ # # # # # # # # # # # # # # # # # # # # # # # # # # # # # # # # # # # # $ . .                 ",
"                            . . # # . . # # . . # # . . # # # # # # # # # # # # # # # # # # # # # # # # # # . .                 ",
"                            . . # # . . # # . . # # . . # # # # # # # # # # # # # # # # # # # # # # # # # # . .                 ",
"                            . . # # # # # # # # # # # # # # # # # # # # # # # # # # # # # # # # # # # # # # . .                 ",
"                            . . # # # # # # # # # # # # # # # # # # # # # # # # # # # # # # # # # # # # # % . .                 ",
"                    . . . . . . # # . . . . . . . . . . . . . . . . . . . . . . . . . . . . . . . . . . % & . . . . . .         ",
"                  . . . . . . . # # . . . . . . . . . . . . . . . . . . . . . . . . . . . . . . . . . . & & . . . . . . .       ",
"                . . * = - - . . # # # # # # # # # # # # # # # # # # # # # # # # # # # # # # # # # # ; & & & . . > - = * . .     ",
"                . . = - - - . . # # # # # # # # # # # # # # # # # # # # # # # # # # # # # # # # # ; & & & & . . > - - , . .     ",
"                . . - - - - . . # # # # # # # # # # # # # # # # # # # # # # # # # # # # # # # # ; & & & & & . . > - - - . .     ",
"                . . - - - - . . # # # # # # # # # # # # # # # # # # # # # # # # # # # # # # # ' & & & & & & . . > - - - . .     ",
"                . . - - - - . . # # # # # # # # # # # # # # # # # # # . . # # # # # # # # # ' & & & & & & & . . > - - - . .     ",
"                . . - - - - . . # # # # # # # # # # # # # # ) ! # # # . . # # # ~ ) # # # { ] & & & & & & & . . > - - - . .     ",
"                . . - - - - . . # # # # # # # # # # # # # ^ . / ! # # . . # # ~ ( . _ # : < & & & & & & & & . . > - - - . .     ",
"                . . - - - - . . # # # # # # # # # # # # # ~ ( . / ! # . . # ~ ( . / ! : < & & & & & & & & & . . > - - - . .     ",
"                . . - - - - . . # # # # # # # # # # # # # # ~ ( . ) # # # # ^ . / ! : < & & & & & & & & & & . . > - - - . .     ",
"                . . - - - - . . # # # # # # # # # # # # # # # ~ [ # # # # # # [ ! } < & & & & & & & & & & & . . > - - - . .     ",
"                . . - - - - . . # # # # # # # # # # # # # # # # # # # # # # # # | 1 & & & & & & & & & & & & . . > - - - . .     ",
"                . . - - - - . . # # # # # # # # # # # # # . . . . # # . . # # . . . . & & & & & & & & & & & . . > - - - . .     ",
"                . . - - - - . . # # # # # # # # # # # # # . . . . # # . . # 2 . . . . & & & & & & & & & & & . . > - - - . .     ",
"                . . - - - - . . # # # # # # # # # # # # # # # # # # 3 . 4 2 ! & & & & & & & & & & & & & & & . . > - - - . .     ",
"                . . - - - - - # # # # # # # # # # # # # # # # # # # 5 . 6 ! & & & & & & & & & & & & & & & & . . > - - - . .     ",
"                . . - - - - - # # # # # # # # # # # # # # # # # # # 7 . 8 & & & & & & & & & & & & & & & & & . . > - - - . .     ",
"                . . - - - = 9 0 a b c d e f g h ~ # # # ! a a ! # i j . k & & & & & & & & & & & & & & & & & . . > - - - . .     ",
"                  - - l m n . . . . . . . . . . o p q ! ( . . ( r s . + & & & & & & & & & & & & & & & & & & . . > - - - . .     ",
"                  t u . . v w x y z A A B C D E F . . G . H H . d . I J & & & & & & & & & & & & & & & & & & . . > - - - . .     ",
"                  K . L M N O O O O O O O O O O z P Q . H z z H . d R & & & & & & & & & & & & & & & & & & & . . > - - - . .     ",
"              . . . S N O O y x O O O O O O O O O O z T z O O z H . U V & & & & & & & & & & & & & & & & & & . . > - - - . .     ",
"            . . W X O O O Y . Z ` O O O O O O O O O O O O O O O z H .  .& & & & & & & & & & & & & & & & & & . . > - - - . .     ",
"            . W ..O +.@.#.O $.%.N O O O O O O O O O O O O O O O z H . ( & & & & & & & & & & & & & & & & & & . . > - - - . .     ",
"          . . X O N &.. *.O O O O O O O O O O O O O O O O O O =.H . U V & & & & & & & & & & & & & & & & & & . . > - - - . .     ",
"        . . -.O +.&.. ;.>.O O O O O O O O O O O O O O O O O O T . ,.V & & & & & & & & & & & & & & & & & & & & > > - - - . .     ",
"        . '.N O ).. ;.!.O O O O O O O O O O O O O O O O O O O z ~.. {.& & & & & & & & & & & & & & & & & & & & > > - - - . .     ",
"      . . M O ].. ^./.O O O O O O O O O O O O O O O O O O O O O (.. _.:.:.. . . . . . . . . . . . . . . . . . . . . . . . .     ",
"      . <.N O [.. M O O O O O O O O O O O O O O O O O O O O O O z }.|.1.2.. . . . . . . . . . . . . . . . . . . . . . . . .     ",
"      . w O 3.. 4.5.O O O O O O O O O O O O O O O O O O O O O O O 6.. 7.2.2.2.2.2.2.2.2.2.2.2.2.2.2.2.2.2.2.2.2.2.2.2.2.. .     ",
"    . . 8.O 9.. @.O O O O O O O O O O O O O O O O O O O O O O O O 0.. a.2.2.2.2.2.2.2.2.2.2.2.2.2.2.2.2.2.2.2.2.2.2.2.2.. .     ",
"    . . y O b.. c.O O O O O O O O O O O O O O O O O O O O O O O O Y . d.2.2.2.2.2.2.2.2.2.2.2.2.2.2.2.2.2.2.2.2.2.2.2.1.. .     ",
"    . . z O O e.f.O O O O O O O O O O O O O O O O O O O O O O O O !.. g.2.2.2.2.2.2.2.2.2.2.2.2.2.2.2.2.2.2.2.2.2.2.1.h.. .     ",
"    . . A O O O O O O O O O O O O O O O O O O O O O O O O O O O O 5.. i.2.2.. . . . . . . . . . . . . . . . . . . . . . .       ",
"    . . A O O O O O O O O O O O O O O O O O O O O O O O O O O O O ` . c j.j.. . . . . . . . . . . . . . . . . . . . . .         ",
"    . . B O O O O O O O O O O O O O O O O O O O O O O O O O O O O k.. l.j.j.m.. .                                               ",
"    . . n.O O O O O O O O O O O O O O O O O O O O O O O O O O O O o.. p.j.j.q.. .                                               ",
"    . . D O O O O O O O O O O O O O O O O O O O O O O O O O O O O 0.. r.2.2.s.t..                                               ",
"      . u.O O O O O O O O O O O O O O O O O O O O O O O O O O O O v.. w.2.2.2.h..                                               ",
"      . F =.O O O O O O O O O O O O O O O O O O O O O O O O O O z x.y.1.2.2.2.z.. .                                             ",
"      . . P O O O O O O O O O O O O O O O O O O O O O O O O O O A.. B.2.2.2.2.C.D..                                             ",
"        . E.z O O O O O O O O O O O O O O O O O O O O O O O O B F.. G.2.2.2.2.2.H..                                             ",
"        . . I.O O O O O O O O O O O O O O O O O O O O O O O O J.. K.2.2.2.2.2.2.L.. .                                           ",
"          . . x O O O O O O O O O O O O O O O O O O O O O O 0.. M.N.2.. . . . . . . . . .                                       ",
"            . x.O.O O O O O O O O O O O O O O O O O O O O P.d . Q.2.2.. . . . . . . . . .                                       ",
"            . . x.8.O O O O O O O O O O O O O O O O O O 0.R.. .                                                                 ",
"              . . . *.z O O O O O O O O O O O O O O B J.. . .                                                                   ",
"                  . . ~.9.z O O O O O O O O O O z A.S.. .                                                                       ",
"                    . . . }.6.0.Y !.5.` k.o.0.v.x.. . .                                                                         ",
"                        . . . . . . . . . . . . . .                                                                             ",
"                              . . . . . . . .                                                                                   ",
"                                                                                                                                ",
"                                                                                                                                "};
