/* XPM */
static const char * browser_xpm[] = {
"32 32 201 2",
"  	c None",
". 	c #000000",
"+ 	c #8F590D",
"@ 	c #CF8318",
"# 	c #9B610F",
"$ 	c #BC7615",
"% 	c #D28518",
"& 	c #D68719",
"* 	c #BE7715",
"= 	c #E6921B",
"- 	c #F79D1E",
"; 	c #C27A15",
"> 	c #150A00",
", 	c #DA8A19",
"' 	c #DC8B1A",
") 	c #C97F17",
"! 	c #E9941C",
"~ 	c #C97F16",
"{ 	c #B67213",
"] 	c #89550C",
"^ 	c #010100",
"/ 	c #020100",
"( 	c #4A2C04",
"_ 	c #6C6E6E",
": 	c #CBCFD0",
"< 	c #C9CDCE",
"[ 	c #666868",
"} 	c #C1C4C5",
"| 	c #D6DADB",
"1 	c #D9DDDE",
"2 	c #886525",
"3 	c #896625",
"4 	c #896218",
"5 	c #473006",
"6 	c #BABDBE",
"7 	c #FDC04C",
"8 	c #EFB548",
"9 	c #FBBE4C",
"0 	c #FFC14D",
"a 	c #FFBD44",
"b 	c #FFB730",
"c 	c #896115",
"d 	c #B2B5B6",
"e 	c #644A1A",
"f 	c #E1AA43",
"g 	c #FFBF48",
"h 	c #FFB731",
"i 	c #AFB2B3",
"j 	c #D5D9DA",
"k 	c #FFBF49",
"l 	c #FFB832",
"m 	c #644A19",
"n 	c #FFB833",
"o 	c #F3BE78",
"p 	c #D1D4D6",
"q 	c #D7DADC",
"r 	c #E8C0A4",
"s 	c #D59826",
"t 	c #9A6D19",
"u 	c #624617",
"v 	c #252626",
"w 	c #686A6A",
"x 	c #9F7D62",
"y 	c #CE8218",
"z 	c #472A03",
"A 	c #E5AD44",
"B 	c #F8BC4B",
"C 	c #FFBC3F",
"D 	c #F3AE2D",
"E 	c #815B13",
"F 	c #143850",
"G 	c #31739F",
"H 	c #3A85B8",
"I 	c #3B87BA",
"J 	c #3983B4",
"K 	c #29638A",
"L 	c #0C1823",
"M 	c #B37013",
"N 	c #FFC04A",
"O 	c #FFB938",
"P 	c #F6B12E",
"Q 	c #63450C",
"R 	c #2A638A",
"S 	c #4296CF",
"T 	c #357AA9",
"U 	c #255A7D",
"V 	c #1F4F6F",
"W 	c #2A658C",
"X 	c #3B88BC",
"Y 	c #3E8DC2",
"Z 	c #19425D",
"` 	c #FFBD43",
" .	c #966A18",
"..	c #275F84",
"+.	c #4194CB",
"@.	c #1C4765",
"#.	c #2E555B",
"$.	c #55959F",
"%.	c #5FA2AD",
"&.	c #4C8790",
"*.	c #1A3438",
"=.	c #2D6A93",
"-.	c #4092C9",
";.	c #0E2B3E",
">.	c #ECA92C",
",.	c #09202F",
"'.	c #4193CB",
").	c #215273",
"!.	c #457C84",
"~.	c #79C3CF",
"{.	c #679FA8",
"].	c #7BBDC7",
"^.	c #85CDD8",
"/.	c #71BCC8",
"(.	c #26474D",
"_.	c #3478A6",
":.	c #FFC04B",
"<.	c #FFBB3D",
"[.	c #C08921",
"}.	c #275E83",
"|.	c #3C8ABF",
"1.	c #1E3B40",
"2.	c #79C4D0",
"3.	c #3E6268",
"4.	c #487077",
"5.	c #7DBEC9",
"6.	c #87CED9",
"7.	c #86CED9",
"8.	c #62A7B2",
"9.	c #14374F",
"0.	c #4295CE",
"a.	c #010306",
"b.	c #F9BD4B",
"c.	c #FFBB3E",
"d.	c #A0721B",
"e.	c #2F6F99",
"f.	c #31729E",
"g.	c #40737B",
"h.	c #72B3BE",
"i.	c #335357",
"j.	c #7CC9D5",
"k.	c #4193CA",
"l.	c #1A4460",
"m.	c #D29C37",
"n.	c #FFBA3A",
"o.	c #9E701A",
"p.	c #30709B",
"q.	c #42767E",
"r.	c #83CCD7",
"s.	c #86CDD8",
"t.	c #4091C8",
"u.	c #1C4764",
"v.	c #412C05",
"w.	c #BA8520",
"x.	c #D69927",
"y.	c #BD8721",
"z.	c #296188",
"A.	c #3A86B9",
"B.	c #244449",
"C.	c #7CC8D4",
"D.	c #67AEB9",
"E.	c #102F44",
"F.	c #020A12",
"G.	c #AE7C1E",
"H.	c #B78320",
"I.	c #0D293C",
"J.	c #4195CC",
"K.	c #1C4865",
"L.	c #4D8790",
"M.	c #80CBD6",
"N.	c #77C2CE",
"O.	c #30595F",
"P.	c #30719C",
"Q.	c #357CAB",
"R.	c #2B678F",
"S.	c #3E8EC3",
"T.	c #14384F",
"U.	c #3D6E76",
"V.	c #63A7B2",
"W.	c #6AAFBA",
"X.	c #5B9CA7",
"Y.	c #274A4F",
"Z.	c #12344A",
"`.	c #2F6F9A",
" +	c #1E4B6A",
".+	c #173C55",
"++	c #225476",
"@+	c #367DAD",
"#+	c #1B4562",
"$+	c #124365",
"%+	c #1B4663",
"&+	c #357BAA",
"*+	c #3D8CC1",
"=+	c #3B88BB",
"-+	c #2E6C96",
";+	c #0C2739",
">+	c #031A2D",
",+	c #3B8DC6",
"'+	c #4092CA",
")+	c #4093CA",
"!+	c #3378A6",
"            . . . . . . . .                                     ",
"          . + @ @ @ @ @ @ # . .                                 ",
"          . $ % % & * = $ - ; > . . . . . . . . . . .           ",
"          . $ , , ' ) ! ~ - - ' { { { { { { { { { ] .           ",
"          . $ - - - - - - - - - - - - - - - - - - $ .           ",
"    . . . . ^ / / / / / / / / / / / / / / / / ( - $ .           ",
"    . _ : : : : : : : : : : : : : : : : : : < . - $ .           ",
". . . [ } } } } } } } } } } } } } } } } } | 1 . - $ .           ",
". 2 3 3 3 3 3 3 3 3 3 3 3 3 3 3 3 3 3 4 5 6 1 . - $ .           ",
". 7 8 9 0 0 0 0 0 0 0 0 0 0 0 0 0 0 a b c d | . - $ .           ",
". 7 e f 0 0 0 0 0 0 0 0 0 0 0 0 0 g h b c i j . - $ .           ",
". 7 0 0 0 0 0 0 0 0 0 0 0 0 0 0 k l b b c i j . - $ .           ",
". 7 m f 0 0 0 0 0 0 0 0 0 0 0 k n b b b c i j . - $ .           ",
". 7 m f 0 0 0 0 0 0 0 0 0 0 g l b b b b o p q r - $ .           ",
". 7 m f 0 0 0 0 0 0 0 0 0 a h b b b s t u v w x = y z           ",
". 7 A B 0 0 0 0 0 0 0 0 C b b b D E F G H I J K L M -           ",
". 7 0 0 0 0 0 0 0 0 N O b b b P Q R S T U V W X Y Z .           ",
". 7 0 0 0 0 0 0 0 ` l b b b b  ...+.@.#.$.%.&.*.=.-.;..         ",
". 7 0 0 0 0 0 k O b b b b b >.,.'.).!.~.{.].^./.(.T _..         ",
". 7 0 0 0 :.<.b b b b b b b [.}.|.1.2.3.4.5.6.7.8.9.0.a.        ",
". b.0 N c.h b b b b b b b b d.e.f.g.h.i.6.6.6.6.j.. k.l..       ",
". m.n.b b b b b b b b b b b o.e.p.q.r.s.6.6.6.6.j.. t.u..       ",
". v.w.x.x.x.x.x.x.x.x.x.x.D y.z.A.B.C.6.6.6.6.6.D.E.S F.        ",
"  . . . . . . . . . . . . G.H.I.J.K.L.M.6.6.7.N.O.P.Q..         ",
"                              . R.S.T.U.V.W.X.Y.}.+.Z..         ",
"                                . e.+.`. +.+++@+-.#+$+. .       ",
"                                . . %+&+*++.=+-+;+>+,+T . .     ",
"                                    . . . . . . . . Z '+T . .   ",
"                                                    . Z '+T . . ",
"                                                      . Z )+!+. ",
"                                                        . Z `.. ",
"                                                          . . . "};
