/* XPM */
static char * car_crash_xpm[] = {
"64 64 377 2",
"  	c None",
". 	c #0A0201",
"+ 	c #170604",
"@ 	c #170504",
"# 	c #030100",
"$ 	c #000000",
"% 	c #030101",
"& 	c #140403",
"* 	c #130503",
"= 	c #130403",
"- 	c #120403",
"; 	c #190605",
"> 	c #080201",
", 	c #010000",
"' 	c #533B0E",
") 	c #0B0201",
"! 	c #705116",
"~ 	c #C28F2D",
"{ 	c #0C0302",
"] 	c #150403",
"^ 	c #B58529",
"/ 	c #F4B43B",
"( 	c #2F2005",
"_ 	c #070201",
": 	c #200705",
"< 	c #E1A635",
"[ 	c #FDBB3D",
"} 	c #9D7322",
"| 	c #2C0D0A",
"1 	c #725317",
"2 	c #130B01",
"3 	c #50390D",
"4 	c #FCBA3D",
"5 	c #DEA435",
"6 	c #190504",
"7 	c #87631C",
"8 	c #DAA133",
"9 	c #4F380D",
"0 	c #A27724",
"a 	c #6B4D14",
"b 	c #84601C",
"c 	c #694C14",
"d 	c #060301",
"e 	c #EBAD38",
"f 	c #F0B23A",
"g 	c #85611C",
"h 	c #D49C32",
"i 	c #48330B",
"j 	c #CA952F",
"k 	c #E3A836",
"l 	c #030200",
"m 	c #0A1517",
"n 	c #B18228",
"o 	c #FBBA3D",
"p 	c #120A01",
"q 	c #322306",
"r 	c #F7B63B",
"s 	c #312205",
"t 	c #020100",
"u 	c #9F7423",
"v 	c #F3B33A",
"w 	c #926B1F",
"x 	c #000101",
"y 	c #6BA5AD",
"z 	c #6AA4AC",
"A 	c #6298A0",
"B 	c #56868D",
"C 	c #446A70",
"D 	c #314F54",
"E 	c #091214",
"F 	c #4E380C",
"G 	c #FAB83C",
"H 	c #E2A635",
"I 	c #E2A736",
"J 	c #E4A836",
"K 	c #060E0F",
"L 	c #325054",
"M 	c #456C72",
"N 	c #57878F",
"O 	c #6399A1",
"P 	c #68A0A8",
"Q 	c #6399A2",
"R 	c #87CED9",
"S 	c #86CCD7",
"T 	c #304E52",
"U 	c #5F939B",
"V 	c #527F86",
"W 	c #3F6368",
"X 	c #294347",
"Y 	c #010101",
"Z 	c #D19A31",
"` 	c #936B20",
" .	c #263F42",
"..	c #3E6268",
"+.	c #517E85",
"@.	c #517F86",
"#.	c #4C787F",
"$.	c #0D1B1D",
"%.	c #81C5D0",
"&.	c #84C9D4",
"*.	c #7BBCC6",
"=.	c #598A92",
"-.	c #87621C",
";.	c #0E1B1D",
">.	c #649BA3",
",.	c #83C8D3",
"'.	c #74B1BB",
").	c #40666C",
"!.	c #7FC2CD",
"~.	c #172C2F",
"{.	c #497178",
"].	c #5E929A",
"^.	c #7CBDC8",
"/.	c #2D4A4E",
"(.	c #78B8C2",
"_.	c #385A5F",
":.	c #7CBEC8",
"<.	c #0D1A1C",
"[.	c #03080A",
"}.	c #85CCD6",
"|.	c #6DA8B1",
"1.	c #487278",
"2.	c #6CA6AF",
"3.	c #264044",
"4.	c #7DC0CA",
"5.	c #4E7980",
"6.	c #598A91",
"7.	c #649AA2",
"8.	c #6EAAB3",
"9.	c #79B9C3",
"0.	c #80C4CE",
"a.	c #82C7D2",
"b.	c #23393D",
"c.	c #010407",
"d.	c #01060B",
"e.	c #3D6167",
"f.	c #86CDD8",
"g.	c #76B5BE",
"h.	c #80C4CF",
"i.	c #6EA9B2",
"j.	c #588991",
"k.	c #4D787F",
"l.	c #020404",
"m.	c #38595E",
"n.	c #5A8C93",
"o.	c #659CA4",
"p.	c #70ACB5",
"q.	c #7ABBC5",
"r.	c #82C6D1",
"s.	c #679FA8",
"t.	c #010408",
"u.	c #02090F",
"v.	c #02060B",
"w.	c #000102",
"x.	c #040E16",
"y.	c #010202",
"z.	c #77B6BF",
"A.	c #7ABAC4",
"B.	c #6FABB4",
"C.	c #5A8B93",
"D.	c #274145",
"E.	c #060D0E",
"F.	c #C1493C",
"G.	c #AF4136",
"H.	c #9D3A2F",
"I.	c #812E25",
"J.	c #65221B",
"K.	c #2C0B08",
"L.	c #1F3337",
"M.	c #3A5D62",
"N.	c #4B767C",
"O.	c #5B8D95",
"P.	c #669DA6",
"Q.	c #70ABB4",
"R.	c #253C40",
"S.	c #040F17",
"T.	c #000203",
"U.	c #01050A",
"V.	c #010204",
"W.	c #40656B",
"X.	c #70ACB6",
"Y.	c #669CA5",
"Z.	c #4B757C",
"`.	c #395B60",
" +	c #1B2E31",
".+	c #081D2B",
"++	c #19415C",
"@+	c #225475",
"#+	c #2B668E",
"$+	c #31729E",
"%+	c #367EAE",
"&+	c #E8594A",
"*+	c #61211A",
"=+	c #AB4035",
"-+	c #AE4135",
";+	c #9B392F",
">+	c #7E2D25",
",+	c #62211B",
"'+	c #260906",
")+	c #010305",
"!+	c #051520",
"~+	c #173E58",
"{+	c #215171",
"]+	c #2A648B",
"^+	c #30709C",
"/+	c #275F84",
"(+	c #265D82",
"_+	c #4398D1",
":+	c #DD5446",
"<+	c #DB5446",
"[+	c #D04F41",
"}+	c #BD473B",
"|+	c #AC4035",
"1+	c #99382E",
"2+	c #7B2C24",
"3+	c #5F2019",
"4+	c #180403",
"5+	c #04101A",
"6+	c #163C55",
"7+	c #204F6F",
"8+	c #29638A",
"9+	c #2F709B",
"0+	c #357BAA",
"a+	c #3B88BB",
"b+	c #3F90C6",
"c+	c #3881B2",
"d+	c #1E4C6B",
"e+	c #2A0907",
"f+	c #A63830",
"g+	c #A3362F",
"h+	c #BD4238",
"i+	c #DE5346",
"j+	c #A73E33",
"k+	c #561D17",
"l+	c #C84C3F",
"m+	c #732820",
"n+	c #792B23",
"o+	c #000001",
"p+	c #0B2536",
"q+	c #3F8FC4",
"r+	c #4397D0",
"s+	c #3377A4",
"t+	c #24587B",
"u+	c #153A52",
"v+	c #357AA9",
"w+	c #3C8BBF",
"x+	c #143951",
"y+	c #D15042",
"z+	c #63211B",
"A+	c #4A1612",
"B+	c #C94C3F",
"C+	c #E05647",
"D+	c #CB4D40",
"E+	c #DE5547",
"F+	c #91352B",
"G+	c #2E6C96",
"H+	c #296288",
"I+	c #30729D",
"J+	c #4295CD",
"K+	c #3E8DC2",
"L+	c #255B7F",
"M+	c #2C6992",
"N+	c #4193CA",
"O+	c #020B14",
"P+	c #C0483C",
"Q+	c #7E2D24",
"R+	c #E7594A",
"S+	c #A53D32",
"T+	c #873128",
"U+	c #60201A",
"V+	c #DB5445",
"W+	c #E45748",
"X+	c #67241C",
"Y+	c #110302",
"Z+	c #68241D",
"`+	c #D04F42",
" @	c #4195CC",
".@	c #4296CE",
"+@	c #3173A0",
"@@	c #1B4562",
"#@	c #05131D",
"$@	c #05121C",
"%@	c #3983B5",
"&@	c #3C88BC",
"*@	c #0C283A",
"=@	c #3E8EC4",
"-@	c #9B392E",
";@	c #D95345",
">@	c #62211A",
",@	c #DA5345",
"'@	c #C34A3D",
")@	c #3F8FC5",
"!@	c #18405A",
"~@	c #19405B",
"{@	c #1A4460",
"]@	c #3A86B9",
"^@	c #99392E",
"/@	c #A63E33",
"(@	c #B74539",
"_@	c #CA4D40",
":@	c #D85244",
"<@	c #AD4035",
"[@	c #260F05",
"}@	c #542912",
"|@	c #633117",
"1@	c #623117",
"2@	c #250F05",
"3@	c #E45749",
"4@	c #B14237",
"5@	c #3B87BB",
"6@	c #4295CE",
"7@	c #235779",
"8@	c #3377A5",
"9@	c #3984B6",
"0@	c #2D6B95",
"a@	c #296389",
"b@	c #93362C",
"c@	c #A83E33",
"d@	c #B94639",
"e@	c #CC4D40",
"f@	c #D85345",
"g@	c #E65849",
"h@	c #663318",
"i@	c #B04236",
"j@	c #9F3B30",
"k@	c #31739F",
"l@	c #3E8EC3",
"m@	c #3A85B8",
"n@	c #3479A7",
"o@	c #2E6D98",
"p@	c #285F85",
"q@	c #113147",
"r@	c #230805",
"s@	c #532C19",
"t@	c #1A100B",
"u@	c #1F110B",
"v@	c #572E1A",
"w@	c #6A251D",
"x@	c #843027",
"y@	c #2F6F9A",
"z@	c #1A445F",
"A@	c #512813",
"B@	c #170B06",
"C@	c #1F120C",
"D@	c #572F1C",
"E@	c #020A11",
"F@	c #66351C",
"G@	c #150C08",
"H@	c #20120C",
"I@	c #180503",
"J@	c #BC473A",
"K@	c #CE4E41",
"L@	c #265C80",
"M@	c #3B87BA",
"N@	c #030D16",
"O@	c #643218",
"P@	c #100502",
"Q@	c #21140F",
"R@	c #66351B",
"S@	c #160C08",
"T@	c #110602",
"U@	c #21140E",
"V@	c #532812",
"W@	c #542C19",
"X@	c #1D120C",
"Y@	c #572D19",
"Z@	c #532912",
"`@	c #522914",
" #	c #1B0F09",
".#	c #572F1B",
"+#	c #220D04",
"@#	c #613017",
"##	c #230E04",
"$#	c #210D04",
"%#	c #512812",
"&#	c #603016",
"*#	c #522812",
"                                                                                                                                ",
"                                                                                                                                ",
"                                                                                                                                ",
"                                                                                                                                ",
"                                                                                                                                ",
"                                                                                                                                ",
"                                                                                                                                ",
"                                                                                                                                ",
"                                                                                                                                ",
"                                                                                                                                ",
"                                                                                                                                ",
"                                                                                          . + @ .                               ",
"                                                                                          # $ $ %                               ",
"                                                                                          & $ $ *                               ",
"                                                                                          $ % # $                               ",
"                    . + @ .                                                               =     -                               ",
"                    # $ $ %                                                         ;                                           ",
"                    & $ $ *                                                       @ $ >                                         ",
"                    $ % # $                                   $ $               @ $ %                                           ",
"                    =     -                                   $ $ $           @ $ %                                             ",
"                                                            $ $ $ $         @ $ %                                               ",
"                              >                             $ , ' $         $ %                                                 ",
"                              $ )       $ $ $               $ ! ~ $ $       =                                                   ",
"                              { $ ]     $ $ $ $           $ $ ^ / ( $               $ $ $                                       ",
"                                _ $ :     $ $ $ $ $       $ $ < [ } $ $         $ $ $ $ $                                       ",
"                                  % $ |   $ $ 1 2 $ $     $ 3 4 [ 5 $ $       $ $ $ $ $                                         ",
"                                    6       $ 7 8 9 $ $ $ $ 0 [ [ [ a $   $ $ $ b c $ $                                         ",
"    $ $ $                                   $ d e f g $ $ $ h [ [ [ ~ $ $ $ i j k l $                                 $ $       ",
"    m $ $ $ $ $ $ $ $ $ $                   $ $ n [ o ^ p q r [ [ [ / s t u v [ w $ $                 $ $ $ $ $ $ $ $ $ $ x     ",
"    y z A B C D E $ $ $ $ $ $ $ $ $ $         $ F G [ [ H I [ [ [ [ [ I < [ [ J l $       $ $ $ $ $ $ $ $ $ $ K L M N O P Q     ",
"    R R R R R R S T $ U U V W X Y $ $ $       $ $ Z [ [ [ [ [ [ [ [ [ [ [ [ [ ` $ $   $ $ $ $ $  ...+.U @.$ #.S R R R R R R     ",
"    R R R R R R R $.$ %.R R R R &.*.=.$ $       $ -.[ [ [ [ [ [ [ [ [ [ [ [     $     $ ;.>.*.,.R R R R '.$ ).R R R R R R R     ",
"    R R R R R R !.$ ~.R R R R R R R R {.$ $     $                                   $ $ ].R R R R R R R ^.$ /.R R R R R R R     ",
"    R R R R R R (.$ _.R R R R R R R R :.<.$                                         $ X &.R R R R R R R &.$ [.}.R R R R R R     ",
"    R R R R R R |.$ 1.R R R R R R R R R =.$ $                                     $ $ 2.R R R R R R R R R 3.$ 4.R R R R R R     ",
"    5.6.7.8.9.0.Q $ =.R R R R R R R R R a.b.$                   c.$ $ d.        $ $ e.f.R R R R R R R R R e.$ g.h.9.i.7.j.k.    ",
"    Y $ $ $ $ $ l.$ m.n.o.p.q.r.R R R R R s.$ $                 t.u.v.$ w.x.    $ y.z.R R R R R %.A.B.o.C.D.$ E.$ $ $ $ $ Y     ",
"    F.G.H.I.J.K.$ $ $ $ $ $ $ $ L.M.N.O.P.Q.R.$                       S.T.$ U.V.$ W.X.Y.O.Z.`. +$ $ $ $ $ $ $ $ .+++@+#+$+%+    ",
"    &+&+&+&+&+&+*+$ =+-+;+>+,+'+$ $ $ $ $ $ $ $ $ $ $ $ $ $               )+$ $ $ $ $ $ $ $ $ $ !+~+{+]+^+/+$ (+_+_+_+_+_+_+    ",
"    &+&+&+&+&+&+K.$ :+&+&+&+&+&+<+[+}+|+1+2+3+4+$ $ $ $ $ $ $     $ $ $ $ $ $ $ 5+6+7+8+9+0+a+b+_+_+_+_+_+c+$ d+_+_+_+_+_+_+    ",
"    &+&+&+&+&+:+$ e+&+&+f+g+h+i+&+&+&+&+&+&+&+j+k+l+m+$ n+% $ $ $ $ $ o+p+w.$+q+r+_+_+_+_+_+_+_+s+t+u+v+_+w+$ x+_+_+_+_+_+_+    ",
"    &+&+&+&+&+y+$ z+&+&+A+$ $ B+&+&+&+&+&+&+&+&+&+&+C+D+&+E+F+$ $ G+H+I+J+K+_+_+_+_+_+_+_+_+_+_+L+$ $ M+_+N+$ O+r+_+_+_+_+_+    ",
"    &+&+&+&+&+P+$ Q+&+R+S+T+U+V+&+&+W+G.X+Y+= Z+G.W+&+&+&+&+`+$ $  @_+_+_+_+.@+@@@#@$@@@+@.@_+_+%@s+&@ @_+_+*@$ =@_+_+_+_+_+    ",
"    &+&+&+&+&+G.$ -@&+&+&+&+&+&+&+;@*+$ $ $ $ $ $ >@,@&+&+&+'@$ $ b+_+_+_+)@!@$ $ $ $ $ $ ~@)@_+_+_+_+_+_+_+{@$ ]@_+_+_+_+_+    ",
"    ^@/@(@_@:@1+$ <@&+&+&+&+&+&+W+*+$ [@}@|@1@}@2@$ ,+3@&+&+4@$ $ 5@_+_+J+!@$ [@}@|@1@}@2@$ !@6@_+_+_+_+_+_+7@$ 8@K+9@s+0@a@    ",
"    % $ $ $ $ $ $ U+b@c@d@e@f@g@G.$ [@1@h@h@h@h@1@2@$ i@&+&+j@$ $ 0+_+_+k@$ [@1@h@h@h@h@1@2@$ k@r+l@m@n@o@p@q@$ $ $ $ $ $ T.    ",
"      $ $ $ $ $ $ $ $ $ $ $ $ = r@$ }@h@s@t@u@v@h@}@$ w@&+&+x@$ $ y@_+_+z@$ }@h@A@B@C@D@h@}@$ !+E@$ $ $ $ $ $ $ $ $ $ $ $       ",
"                      $ $ $ $ $ $ $ 1@F@G@$ $ H@h@|@$ I@J@K@U+$ $ L@M@v+N@$ 1@O@P@$ $ Q@h@|@$ $ $ $ $ $ $                       ",
"                                $ $ 1@R@S@Y $ H@h@1@$ $ $ $ $ $ $ $ $ $ $ $ 1@O@T@Y $ U@h@1@$ $                                 ",
"                                $ $ V@h@W@X@u@Y@h@Z@$ $ $ $ $ $ $ $ $ $ $ $ V@h@`@ #H@.#h@Z@$ $                                 ",
"                                  $ +#@#h@h@h@h@1@##$                     $ +#@#h@h@h@h@1@##$                                   ",
"                                  $ $ $#%#&#&#*#+#$ $                     $ $ $#%#&#&#*#+#$ $                                   ",
"                                    $ $ $ $ $ $ $ $                         $ $ $ $ $ $ $ $                                     ",
"                                        $ $ $ $                                 $ $ $ $                                         ",
"                                                                                                                                ",
"                                                                                                                                ",
"                                                                                                                                ",
"                                                                                                                                ",
"                                                                                                                                ",
"                                                                                                                                ",
"                                                                                                                                ",
"                                                                                                                                ",
"                                                                                                                                ",
"                                                                                                                                "};
