/* XPM */
static char * key_xpm[] = {
"64 64 198 2",
"  	c None",
". 	c #000000",
"+ 	c #4E3508",
"@ 	c #A3721C",
"# 	c #CB9025",
"$ 	c #E7A32B",
"% 	c #F2AC2E",
"& 	c #FCB330",
"* 	c #A3731C",
"= 	c #4F3508",
"- 	c #825A14",
"; 	c #D79828",
"> 	c #FDB331",
", 	c #FFB531",
"' 	c #825B14",
") 	c #60420C",
"! 	c #D89928",
"~ 	c #9B6D1A",
"{ 	c #F9B030",
"] 	c #FEB431",
"^ 	c #DE9D29",
"/ 	c #B07B1E",
"( 	c #7C5612",
"_ 	c #4A3106",
": 	c #F8B030",
"< 	c #9B6C1A",
"[ 	c #B78121",
"} 	c #FDB330",
"| 	c #CA8E24",
"1 	c #61420B",
"2 	c #B58020",
"3 	c #EAA62C",
"4 	c #765110",
"5 	c #5B3E0A",
"6 	c #B27D1F",
"7 	c #DB9B28",
"8 	c #EFA92D",
"9 	c #FBB230",
"0 	c #D49627",
"a 	c #815A14",
"b 	c #221502",
"c 	c #221602",
"d 	c #FEB12A",
"e 	c #B37913",
"f 	c #9C6D1A",
"g 	c #382404",
"h 	c #5C3E0A",
"i 	c #D09326",
"j 	c #AD7A1E",
"k 	c #AE7A1E",
"l 	c #FCAD21",
"m 	c #FCAC1F",
"n 	c #99670F",
"o 	c #61430D",
"p 	c #D89828",
"q 	c #231602",
"r 	c #9B6C19",
"s 	c #F8B02F",
"t 	c #060606",
"u 	c #D28F18",
"v 	c #F5A71E",
"w 	c #5E3E06",
"x 	c #FEB531",
"y 	c #101010",
"z 	c #81560B",
"A 	c #D59119",
"B 	c #835B14",
"C 	c #9A6C19",
"D 	c #211502",
"E 	c #040404",
"F 	c #261702",
"G 	c #80550B",
"H 	c #191919",
"I 	c #271802",
"J 	c #D49019",
"K 	c #111111",
"L 	c #82570B",
"M 	c #FAAA1F",
"N 	c #4D3204",
"O 	c #A16D10",
"P 	c #DA9419",
"Q 	c #5A3B05",
"R 	c #FAAB1F",
"S 	c #D38F18",
"T 	c #A16C10",
"U 	c #C98817",
"V 	c #AD7412",
"W 	c #B07712",
"X 	c #AD7512",
"Y 	c #AE7512",
"Z 	c #E7A32C",
"` 	c #7B5512",
" .	c #DB9B29",
"..	c #D59627",
"+.	c #825911",
"@.	c #E49B1B",
"#.	c #472F06",
"$.	c #EFAA2D",
"%.	c #FFB42F",
"&.	c #EFA31D",
"*.	c #FFB430",
"=.	c #FCAE23",
"-.	c #F9AA1F",
";.	c #FDAE24",
">.	c #F8A91E",
",.	c #FDAF26",
"'.	c #ECA11C",
").	c #492E03",
"!.	c #E7A42C",
"~.	c #D89319",
"{.	c #7A5109",
"].	c #CC9025",
"^.	c #A5741C",
"/.	c #FFB530",
"(.	c #FDAF25",
"_.	c #5A3A05",
":.	c #DB9519",
"<.	c #CD8B17",
"[.	c #5F3E05",
"}.	c #FBAB1F",
"|.	c #A2721C",
"1.	c #FEB32E",
"2.	c #FCAD22",
"3.	c #C78716",
"4.	c #A0701B",
"5.	c #FDB431",
"6.	c #FEB22B",
"7.	c #FCAC20",
"8.	c #FBAC1F",
"9.	c #98660E",
"0.	c #754D08",
"a.	c #9E6F1B",
"b.	c #F3AC2E",
"c.	c #C48A23",
"d.	c #FDB027",
"e.	c #AC7412",
"f.	c #372202",
"g.	c #E79D1C",
"h.	c #6C4B0E",
"i.	c #C58B23",
"j.	c #241501",
"k.	c #9A6C1A",
"l.	c #6E4C0F",
"m.	c #F4AD2E",
"n.	c #FDB028",
"o.	c #98660F",
"p.	c #976A19",
"q.	c #FEB22C",
"r.	c #D99319",
"s.	c #744D08",
"t.	c #E79E1C",
"u.	c #956819",
"v.	c #FDAE25",
"w.	c #5E3D05",
"x.	c #926618",
"y.	c #8F6417",
"z.	c #F3AB2B",
"A.	c #8C6217",
"B.	c #6D4807",
"C.	c #F1A620",
"D.	c #80560B",
"E.	c #8A6016",
"F.	c #F1A41D",
"G.	c #F2A51D",
"H.	c #95640E",
"I.	c #A26D10",
"J.	c #C98917",
"K.	c #4E3204",
"L.	c #875E16",
"M.	c #FAB230",
"N.	c #FEB42E",
"O.	c #F2A928",
"P.	c #6C4A0D",
"Q.	c #704B08",
"R.	c #855D15",
"S.	c #FAB12F",
"T.	c #F0A41D",
"U.	c #6B4607",
"V.	c #704A08",
"W.	c #F7A921",
"X.	c #7F550A",
"Y.	c #F6A81E",
"Z.	c #7D530A",
"`.	c #764E09",
" +	c #020200",
".+	c #020201",
"++	c #050300",
"@+	c #7A510A",
"#+	c #774F09",
"$+	c #F4A71E",
"%+	c #744D09",
"&+	c #F3A61E",
"*+	c #724C08",
"=+	c #F3A51E",
"-+	c #6E4908",
";+	c #F1A51D",
">+	c #C18215",
",+	c #C18315",
"                                                                                                                                ",
"                                                                                                                                ",
"                                                                              . . . . . . . .                                   ",
"                                                                        . . . . . . . . . . . . . .                             ",
"                                                                    . . . + @ # $ % & & % $ # * = . . .                         ",
"                                                                . . . - ; > , , , , , , , , , , > ; ' . . .                     ",
"                          . . . . . . . . . . . . . .         . . ) ! , , , , , , , , , , , , , , , , ; ) . .                   ",
"                      . . . . . . . . . . . . . . . .       . . ~ { , , , ] ^ / ( _ . , , , , , , , , , : < . .                 ",
"                      . .                                 . . [ , , , } | 1 . . . . . , , , , , , , , , , , 2 . .               ",
"                    . .                                 . . [ , , , 3 4 . . 5 6 7 8 9 , , , , 0 a b c - 0 , d e . .             ",
"                    . .                               . . f , , , ; g . h i } , , , , , , , j . . . . . . k l m n . .           ",
"                    . .                               . o { , , p q . r s , , , , , , , , 0 . .     . t . . u m v w .           ",
"                    . .                             . . ! , , 3 g . k x , , , , , , , , , a .       . y   . z m m A . .         ",
"                      . .                           . B , , } 4 . C , , , , , , , , , , , D .     E .     . F m m m G .         ",
"                      . . . . . . . . . . . . . . . . . . . . . . . . . . . . . . . . . . . . . . . H     . I m m m J . .       ",
"                          . . . . . . . . . . . . . . . . . . . . . . . . . . . . . . . . . . t K         . L m m m M N .       ",
"                                                  . O m m P . Q R m m m m m m m m m m m m u . .         . . S m m m m T .       ",
"                                                . . U m m V . W m m m m m m m m m m m m m m X . . . . . . Y m m m m m U . .     ",
"                                                . . Z , , ` .  ., , , , , , , , , , , , , , , ..+.F I L S m m m m m m @.. .     ",
"                                                . . % , , #.. $., , , , , , , , , , , , , , , %.l m m m m m m m m m m &.. .     ",
"                                                . . & , , . . 9 , , , , , , , , , , , , , , *.=.m m m m m m m m m m m -.. .     ",
"                                                . . & , , , , , , , , , , , , , , , , , , , ;.m m m m m m m >.. . m m -.. .     ",
"                                                . . % , , , , , , , , , , , , , , , , , , ,.m m m m m m m m '.. ).m m &.. .     ",
"                                                . . !., , , , , , , , , , , , , , , , , ,.m m m m m m m m m ~.. {.m m @.. .     ",
"                                                . . ]., , , , , , , , , , , , , , , , ,.m m m m m m m m m m W . X m m U . .     ",
"                                                . . ^., , , , , , , , , , , , , , /.(.m m m m m m m m m m R _.. :.m m T .       ",
"                                                . . [ , , , , , , , , , , , , , *.;.m m m m m m m m m m m <.. [.}.m M N .       ",
"                                              . . |.] , , , , , , , , , , , , 1.2.m m m m m m m m m m m v _.. 3.m m J . .       ",
"                                            . . 4.5., , , , , , , , , , , , 6.7.m m m m m m m m m m m 8.9.. 0.M m m G .         ",
"                                          . . a.5., , , b.c., , , , , , /.d.m m m m m m m m m m m m }.e.. f.g.m m A . .         ",
"                                        . . f 5., , , b.h.. i., , , , 1.2.m m m m m m m m m m m m v 9.. j.A m m v w .           ",
"                                      . . k.> , , , b.h.. l.m., , /.n.m m m m m m m m m m m m R <._.. f.A m m m o.. .           ",
"                                    . . p.& , , , b.h.. l.m., , q.2.m m m m m m m m m >.'.r.W _.. . s.t.m m m e . .             ",
"                                  . . u.& , , , b.h.. l.m., 1.v.m m m m m m m m m m m . . . . . w.3.M m m m e . .               ",
"                                . . x.& , , , b.h.. l.m.%.,.m m m m m m m m m m m m m . ).{.X P R m m m v n . .                 ",
"                              . . y.9 , , , b.h.. l.z.,.m m m m m m m m m m m m m m m m m m m m m m m A w . .                   ",
"                            . . A.9 , , , b.h.. B.C.m m m m m m m m m m m m m m m m m m m m m m M J D.. . .                     ",
"                          . . E.9 , , , b.h.. B.F.m m m m m m m m m m m G.H.I.J.@.&.-.-.&.@.U T K.. . .                         ",
"                        . . L.M., , N.O.P.. B.F.m m m m m m m m m m m G.Q.. . . . . . . . . . . . .                             ",
"                      . . R.S.q.d.2.T.U.. B.F.m m m m m m m m m m m G.V.. .   . . . . . . . .                                   ",
"                    . . z W.m m m T.U.. B.F.m m m m m m m m m m m G.V.. .                                                       ",
"                  . . X.Y.m m m T.U.. B.F.m m m m m m m m m m m G.V.. .                                                         ",
"                . . Z.Y.m m m T.U.. B.F.m m m m m m `.. . .  +.+++. .                                                           ",
"              . . @+v m m m T.U.. B.F.m m m m m m m . . . . . . . .                                                             ",
"            . . #+$+m m m T.U.. B.F.m m m m m m m m . .                                                                         ",
"          . . %+&+m m m T.U.. B.F.m m m m m m m m m . .                                                                         ",
"        . . *+=+m m m T.U.. B.F.m m m m m m m m m m . .                                                                         ",
"      . . V.G.m m m T.U.. B.F.m m m m m m m m m m m . .                                                                         ",
"    . . -+;+m m m T.U.. B.F.m m m m m m `.. . . . . . .                                                                         ",
"    . . F.m m m T.U.. B.F.m m m m m m m . . . . . . . .                                                                         ",
"    . . m m m T.U.. B.F.m m m m m m m m . .                                                                                     ",
"    . . m m T.U.. B.F.m m m m m m m m m . .                                                                                     ",
"    . . m m >+. B.F.m m m m m m m m m m . .                                                                                     ",
"    . . m m m ,+F.m m m m m m m m m m m . .                                                                                     ",
"    . . m m m m m m m m m m `.. . . . . . .                                                                                     ",
"    . . m m m m m m m m m m . . . . . . . .                                                                                     ",
"    . . m m m m m m m m m m . .                                                                                                 ",
"    . . m m m m m m m m m m . .                                                                                                 ",
"    . . m m m m m m m m m m . .                                                                                                 ",
"    . . m m m m m m m m m m . .                                                                                                 ",
"    . . . . . . . . . . . . . .                                                                                                 ",
"    . . . . . . . . . . . . . .                                                                                                 ",
"                                                                                                                                ",
"                                                                                                                                "};
