/* XPM */
static const char * present_xpm[] = {
"32 32 161 2",
"  	c None",
". 	c #000000",
"+ 	c #7DBFC9",
"@ 	c #86CDD7",
"# 	c #83CAD5",
"$ 	c #7CC5D0",
"% 	c #74B7C2",
"& 	c #86CCD7",
"* 	c #73B1BB",
"= 	c #527F86",
"- 	c #78B9C2",
"; 	c #446B71",
"> 	c #314F54",
", 	c #87CED9",
"' 	c #85CCD7",
") 	c #7DC6D1",
"! 	c #2D4C51",
"~ 	c #2D4C50",
"{ 	c #6BAAB4",
"] 	c #7CC5CF",
"^ 	c #82C6D1",
"/ 	c #7BBCC6",
"( 	c #83C8D3",
"_ 	c #76B5BF",
": 	c #85CDD8",
"< 	c #7EC7D2",
"[ 	c #6DAEB8",
"} 	c #78BFC9",
"| 	c #86CDD8",
"1 	c #40696F",
"2 	c #7EC0CA",
"3 	c #487178",
"4 	c #487076",
"5 	c #4E7980",
"6 	c #84CAD4",
"7 	c #86CED9",
"8 	c #7FC8D3",
"9 	c #68A5AF",
"0 	c #67A5AF",
"a 	c #77BCC7",
"b 	c #71ADB6",
"c 	c #153A53",
"d 	c #31729E",
"e 	c #000101",
"f 	c #80C8D3",
"g 	c #143850",
"h 	c #2F6E99",
"i 	c #5A8B93",
"j 	c #62979F",
"k 	c #6CA9B2",
"l 	c #7FC3CD",
"m 	c #61969E",
"n 	c #628326",
"o 	c #516D1E",
"p 	c #7DBFCA",
"q 	c #6EAAB3",
"r 	c #668728",
"s 	c #557120",
"t 	c #2E4E53",
"u 	c #5E969E",
"v 	c #639EA7",
"w 	c #70ACB6",
"x 	c #466D74",
"y 	c #507D83",
"z 	c #325055",
"A 	c #612602",
"B 	c #863805",
"C 	c #84CAD5",
"D 	c #9E4206",
"E 	c #D85D0C",
"F 	c #6CADB6",
"G 	c #7AC2CC",
"H 	c #010102",
"I 	c #7CBEC9",
"J 	c #67A3AC",
"K 	c #3B6167",
"L 	c #010000",
"M 	c #865F25",
"N 	c #452F0F",
"O 	c #69A8B1",
"P 	c #73B7C2",
"Q 	c #020101",
"R 	c #E7A747",
"S 	c #7B5722",
"T 	c #68A6AF",
"U 	c #7FC8D2",
"V 	c #5A9199",
"W 	c #629DA6",
"X 	c #568B93",
"Y 	c #79BFCA",
"Z 	c #78BEC8",
"` 	c #172A2D",
" .	c #010202",
"..	c #030707",
"+.	c #6EB0BA",
"@.	c #6AA9B2",
"#.	c #5B4738",
"$.	c #97775F",
"%.	c #49767D",
"&.	c #81C9D4",
"*.	c #8B6D58",
"=.	c #E0B18F",
"-.	c #7CC4CF",
";.	c #76B9C4",
">.	c #83CBD6",
",.	c #3B6267",
"'.	c #67A4AD",
").	c #010101",
"!.	c #6FB1BB",
"~.	c #6FB0BA",
"{.	c #7BC4CE",
"].	c #84CBD6",
"^.	c #3E656B",
"/.	c #4C7B82",
"(.	c #32261D",
"_.	c #34271E",
":.	c #34575C",
"<.	c #5D959E",
"[.	c #795F4B",
"}.	c #2C2119",
"|.	c #E8B794",
"1.	c #8F705A",
"2.	c #F0BE9A",
"3.	c #6C5443",
"4.	c #FCC7A2",
"5.	c #664F3F",
"6.	c #F7C49F",
"7.	c #544133",
"8.	c #6EAEB8",
"9.	c #66A3AD",
"0.	c #74B8C2",
"a.	c #7CBEC8",
"b.	c #6CA7B0",
"c.	c #7FC2CC",
"d.	c #629BA4",
"e.	c #64A0A9",
"f.	c #75BBC5",
"g.	c #65A1AA",
"h.	c #BB9377",
"i.	c #B28C71",
"j.	c #8B6D57",
"k.	c #FEC9A3",
"l.	c #634D3D",
"m.	c #73B7C1",
"n.	c #6CA6B0",
"o.	c #78BCC7",
"p.	c #5F99A2",
"q.	c #C1987A",
"r.	c #5D8F97",
"s.	c #659CA5",
"t.	c #6299A2",
"u.	c #70B2BC",
"v.	c #558991",
"w.	c #2F4E53",
"x.	c #E4B492",
"y.	c #C89E7F",
"z.	c #20373B",
"A.	c #7D614E",
"B.	c #BE9679",
"C.	c #291E16",
"D.	c #EAB996",
"  . . . . . . . . . . . . . . . . . . . . . . . . . . . . . .   ",
". + @ @ @ @ @ @ @ @ @ @ @ @ @ @ @ @ @ @ @ @ @ @ # $ $ $ $ $ % . ",
". & * = - ; & > , , , , , , , , , , , , , , , ' ) ! ~ ~ ~ { ] . ",
". & ^ / ( - , _ , , , , , , , , , , , , , , : < ) [ [ [ [ } ] . ",
". & , , , , , , , , , , , , , , , , , , , | < ) ) 1 1 1 1 [ ] . ",
". & 2 3 4 4 4 4 4 5 6 , , , , , , , , , 7 8 ) ) ) 9 0 0 0 a ] . ",
". & b c d d d d d e + , , , , , , , , , f ) ) ) ) ) ) ) ) ) ] . ",
". & b g h h h h h e i j j j j j j j j k ) ) ) ) ) ) ) ) ) ) ] . ",
". & l j j j m . n n n n n n n n n n o 1 ) ) ) ) ) ) ) ) ) ) ] . ",
". & p q , , & . r r r r r r r r r r s t u u u u v ) ) ) ) ) ] . ",
". & w x , , , y 4 4 4 4 4 4 4 z A B B B B B B B . $ ) ) ) ) ] . ",
". & w x , , , _ , _ C , , , , j D E E E E E E E . F [ [ [ G ] . ",
". & w x , , & . , H I , , , : J 1 1 1 1 1 K L M M M M M N O ] . ",
". & w x , , & . , H I , , | < } } ) ) ) ) P Q R R R R R S T ] . ",
". & w x , , & . , H I , 7 U ) V V ) W X Y Z `  . . . . ...+.] . ",
". & w x , , & . , H I , 8 ) ) V V @.#.$.%.) ) ) ) ) ) ) ) ) ] . ",
". & w x , , & . , H I &.) ) ) V V u *.=.1 P H ) . -.) ) 1 0 ] . ",
". & w x , , & . , H ;.) ) ) ) V V u *.=.1 P H ) . -.) ) 1 0 ] . ",
". & w x , , & . , H P ) ) ) ) V V u *.=.1 P H ) . -.) ) 1 0 ] . ",
". & w x , , & . >.H P ) ) ) ) V V u *.=.1 P H ) . -.) ) 1 0 ] . ",
". & w x , , & . ) H P ) ) ) ) V V u *.=.,.'.).!.. ~.{.) 1 0 ] . ",
". & w x , , ].. ) H P ) ) ) ) V ^./.*.=.. (.. (.. _.:.-.1 0 ] . ",
". & p q , | ) <.) <.Y ) ) ) ) V [.}.*.|.1.2.3.4.5.6.7.8.9.0.] . ",
". & a.b.c.d.$ V ) V } e.f.g.+.V h.i.j.k.k.k.k.k.k.k.l.[ e.m.] . ",
". & a.n.o.p.$ V ) V } e.f.g.+.V h.q.j.k.k.k.k.k.k.k.l.[ e.m.] . ",
". r.s.t.u u u u u u u u u u u.V h.q.j.k.k.k.k.k.k.k.l.[ '.u v.. ",
"  . . . . . . . . . . . . .   w.h.x.y.k.k.k.k.k.k.k.l.  z.. .   ",
"                              . h.k.k.k.k.k.k.k.k.k.l.          ",
"                                A.k.k.k.k.k.k.k.k.k.l.          ",
"                                . B.k.k.k.k.k.k.k.k.l.          ",
"                                  C.D.k.k.k.k.k.k.k.l.          ",
"                                    A.k.k.k.k.k.k.k.l.          "};
