/* XPM */
static char * stopwatch_xpm[] = {
"64 64 371 2",
"  	c None",
". 	c #000000",
"+ 	c #4398D1",
"@ 	c #327FB3",
"# 	c #225476",
"$ 	c #051521",
"% 	c #235576",
"& 	c #2A648B",
"* 	c #4398D0",
"= 	c #377FAF",
"- 	c #000102",
"; 	c #010101",
"> 	c #4397D0",
", 	c #286186",
"' 	c #286086",
") 	c #102E42",
"! 	c #265B7F",
"~ 	c #31739F",
"{ 	c #3983B5",
"] 	c #3D8CC1",
"^ 	c #4092C8",
"/ 	c #4092C9",
"( 	c #225576",
"_ 	c #03111D",
": 	c #071F30",
"< 	c #0C2638",
"[ 	c #2B658D",
"} 	c #3B87BA",
"| 	c #2A658D",
"1 	c #071F2F",
"2 	c #03121D",
"3 	c #296C98",
"4 	c #2D73A3",
"5 	c #082233",
"6 	c #0F2E42",
"7 	c #3274A0",
"8 	c #4195CC",
"9 	c #4194CB",
"0 	c #377FB0",
"a 	c #2C6992",
"b 	c #204F6F",
"c 	c #163A53",
"d 	c #061722",
"e 	c #071925",
"f 	c #205070",
"g 	c #2D6992",
"h 	c #3780B0",
"i 	c #4194CC",
"j 	c #082031",
"k 	c #2D73A2",
"l 	c #296C99",
"m 	c #2E75A6",
"n 	c #0F3249",
"o 	c #04121C",
"p 	c #2D6A93",
"q 	c #3780B1",
"r 	c #235678",
"s 	c #051622",
"t 	c #235779",
"u 	c #3880B1",
"v 	c #04121D",
"w 	c #0F3148",
"x 	c #2E75A5",
"y 	c #082132",
"z 	c #071E2E",
"A 	c #173D56",
"B 	c #3C89BD",
"C 	c #367CAC",
"D 	c #0B0500",
"E 	c #7A5004",
"F 	c #B37808",
"G 	c #D38D0B",
"H 	c #E79B0D",
"I 	c #F1A20E",
"J 	c #FAA90F",
"K 	c #D38E0B",
"L 	c #795003",
"M 	c #0A0400",
"N 	c #183E58",
"O 	c #367DAD",
"P 	c #071D2D",
"Q 	c #1E4C6B",
"R 	c #583902",
"S 	c #BB7D08",
"T 	c #EEA10E",
"U 	c #FCAC17",
"V 	c #FCB021",
"W 	c #FDB227",
"X 	c #FDB42B",
"Y 	c #FDB52D",
"Z 	c #FDB62F",
"` 	c #FCAC18",
" .	c #EFA10E",
"..	c #583802",
"+.	c #1F4E6D",
"@.	c #3E8DC2",
"#.	c #3F92CA",
"$.	c #1A4F73",
"%.	c #296389",
"&.	c #3479A7",
"*.	c #071B29",
"=.	c #4A2F01",
"-.	c #C48409",
";.	c #F9A912",
">.	c #EDAA2B",
",.	c #C18A21",
"'.	c #DD9E28",
").	c #BF8921",
"!.	c #ECA92B",
"~.	c #FDB42C",
"{.	c #C58409",
"].	c #4B3001",
"^.	c #081D2C",
"/.	c #357AA9",
"(.	c #3C93CC",
"_.	c #348BC6",
":.	c #1F5B83",
"<.	c #2B678F",
"[.	c #996606",
"}.	c #F3A40F",
"|.	c #FBB42D",
"1.	c #BD8720",
"2.	c #9A6D18",
"3.	c #C28A22",
"4.	c #765311",
"5.	c #C18A22",
"6.	c #BC8620",
"7.	c #23618B",
"8.	c #348CC6",
"9.	c #348CC7",
"0.	c #286085",
"a.	c #241500",
"b.	c #C5840A",
"c.	c #D69926",
"d.	c #65460C",
"e.	c #E0A128",
"f.	c #E4A329",
"g.	c #E1A128",
"h.	c #62440C",
"i.	c #D59826",
"j.	c #1F5A81",
"k.	c #311E01",
"l.	c #D7900B",
"m.	c #FCAE1C",
"n.	c #FDB52E",
"o.	c #B07E1E",
"p.	c #7A5611",
"q.	c #FCB52F",
"r.	c #F8B22E",
"s.	c #180E01",
"t.	c #4B4B4B",
"u.	c #9D9D9D",
"v.	c #B6B6B6",
"w.	c #B5B5B5",
"x.	c #909090",
"y.	c #160C01",
"z.	c #F7B22E",
"A.	c #7B5611",
"B.	c #B07D1D",
"C.	c #FCAE1D",
"D.	c #D7910B",
"E.	c #301D01",
"F.	c #22608A",
"G.	c #3389C2",
"H.	c #103751",
"I.	c #04111C",
"J.	c #FCAF1E",
"K.	c #EFAC2B",
"L.	c #F1AD2C",
"M.	c #F6B12D",
"N.	c #503708",
"O.	c #CC9224",
"P.	c #4C4C4C",
"Q.	c #BCBCBC",
"R.	c #B3B3B3",
"S.	c #4F4F4F",
"T.	c #C08921",
"U.	c #F2AE2C",
"V.	c #EFAB2B",
"W.	c #231400",
"X.	c #2870A1",
"Y.	c #2E7EB3",
"Z.	c #020F1A",
"`.	c #6C4C0E",
" +	c #CA9123",
".+	c #533908",
"++	c #69490E",
"@+	c #68480D",
"#+	c #CA9023",
"$+	c #6D4C0E",
"%+	c #051A29",
"&+	c #3082B9",
"*+	c #22618B",
"=+	c #72500F",
"-+	c #FBB42E",
";+	c #775310",
">+	c #73500F",
",+	c #174767",
"'+	c #0A293E",
")+	c #D39725",
"!+	c #DFA028",
"~+	c #5F410B",
"{+	c #1C1102",
"]+	c #1C1202",
"^+	c #5F420B",
"/+	c #2A73A4",
"(+	c #266A98",
"_+	c #FAB42E",
":+	c #745210",
"<+	c #755210",
"[+	c #B17E1E",
"}+	c #113953",
"|+	c #072235",
"1+	c #64460C",
"2+	c #CB9124",
"3+	c #523808",
"4+	c #64450C",
"5+	c #573802",
"6+	c #2B76A9",
"7+	c #205D86",
"8+	c #235679",
"9+	c #E1A129",
"0+	c #F9B32E",
"a+	c #6E4D0F",
"b+	c #6F4E0F",
"c+	c #E0A028",
"d+	c #785411",
"e+	c #795511",
"f+	c #1B5073",
"g+	c #2D7CB1",
"h+	c #CD9224",
"i+	c #543A08",
"j+	c #EEAB2C",
"k+	c #031421",
"l+	c #3288C2",
"m+	c #F7B12E",
"n+	c #B3801E",
"o+	c #D49826",
"p+	c #C28B22",
"q+	c #231703",
"r+	c #B27F1E",
"s+	c #E4A429",
"t+	c #BE8721",
"u+	c #795004",
"v+	c #2B76A8",
"w+	c #1C5379",
"x+	c #9C6E19",
"y+	c #9D6F19",
"z+	c #256A97",
"A+	c #DD9F28",
"B+	c #A2731A",
"C+	c #5A3E0A",
"D+	c #C48C22",
"E+	c #C28923",
"F+	c #F1AD2D",
"G+	c #573C09",
"H+	c #A0721A",
"I+	c #D28D0B",
"J+	c #184A6B",
"K+	c #2C79AC",
"L+	c #153A52",
"M+	c #563B0A",
"N+	c #3B2805",
"O+	c #382605",
"P+	c #A7771C",
"Q+	c #0F364F",
"R+	c #3081B8",
"S+	c #061622",
"T+	c #F0A20E",
"U+	c #051724",
"V+	c #3286BF",
"W+	c #CC4D40",
"X+	c #392605",
"Y+	c #F9A80F",
"Z+	c #348BC5",
"`+	c #CB4D40",
" @	c #338AC4",
".@	c #041521",
"+@	c #3286BE",
"@@	c #A8771C",
"#@	c #6C4B0F",
"$@	c #E69B0D",
"%@	c #0F354F",
"&@	c #2F81B8",
"*@	c #20506F",
"=@	c #18496A",
"-@	c #2C78AC",
";@	c #9C6F19",
">@	c #B27708",
",@	c #256997",
"'@	c #784F03",
")@	c #2A75A7",
"!@	c #1C5378",
"~@	c #EEA00E",
"{@	c #080400",
"]@	c #031420",
"^@	c #3288C1",
"/@	c #0A283D",
"(@	c #BA7C08",
"_@	c #2D7CB0",
":@	c #F2AD2D",
"<@	c #6D4B0F",
"[@	c #F9A812",
"}@	c #563702",
"|@	c #205C85",
"1@	c #0C2637",
"2@	c #C38309",
"3@	c #103852",
"4@	c #3388C2",
"5@	c #072133",
"6@	c #5E410B",
"7@	c #D49726",
"8@	c #60420B",
"9@	c #6C4A0F",
"0@	c #F2A30F",
"a@	c #492E01",
"b@	c #2973A4",
"c@	c #266A97",
"d@	c #0F2D42",
"e@	c #785410",
"f@	c #B37F1E",
"g@	c #6C4B0E",
"h@	c #966405",
"i@	c #164666",
"j@	c #66470C",
"k@	c #CB9123",
"l@	c #6D4B0E",
"m@	c #C38209",
"n@	c #041827",
"o@	c #21608A",
"p@	c #3C89BC",
"q@	c #513708",
"r@	c #D58F0B",
"s@	c #201200",
"t@	c #286F9F",
"u@	c #2E7DB2",
"v@	c #020D17",
"w@	c #173C56",
"x@	c #7A5511",
"y@	c #9B6E19",
"z@	c #C38B22",
"A@	c #C58C22",
"B@	c #2E1C01",
"C@	c #215F88",
"D@	c #FDB42A",
"E@	c #D69A26",
"F@	c #583C09",
"G@	c #63450C",
"H@	c #D59926",
"I@	c #1E587F",
"J@	c #1A4D70",
"K@	c #2C678F",
"L@	c #FCAF21",
"M@	c #A1721A",
"N@	c #976405",
"O@	c #1E5980",
"P@	c #4196CF",
"Q@	c #3A90CB",
"R@	c #041927",
"S@	c #C28A21",
"T@	c #ECAA2B",
"U@	c #194D70",
"V@	c #2972A4",
"W@	c #794F03",
"X@	c #020F19",
"Y@	c #1A5073",
"Z@	c #031320",
"`@	c #03131F",
" #	c #2A75A8",
".#	c #0F354E",
"+#	c #072234",
"                                                                                                                                ",
"                                                                                                                                ",
"                                                      . . . . . . . . . .                                                       ",
"                                                      . . . . . . . . . .                                                       ",
"                                                      . . + + + + + + . .                                                       ",
"                                                      . . + + + + + + . .                                                       ",
"                                                      . . . . . . . . . .                                                       ",
"                          . .                         . . . . . . . . . .                         . .                           ",
"                        . . . .                           . . @ @ . .                           . . . .                         ",
"                      . . # $ . .                         . . @ @ . .                         . . $ % . .                       ",
"                    . . & * = - .                     . . . . ; ; . . . .                     . - = * & . .                     ",
"                  . . & * > , . .             . . . . . . . . . . . . . . . . . .             . . ' > * & . .                   ",
"                . . & * > , . . .         . . . . ) ! ~ { ] ^ > > / ] { ~ ! ) . . . .         . . . , > * & . .                 ",
"              . . ( * > , . _ : . .   . . . < [ } * + + + + + + + + + + + + > } | < . . .   . . 1 2 . , > * ( . .               ",
"              . . $ = , . _ 3 4 5 . . . 6 7 8 + + 9 0 a b c d . ; e c f g h 9 + + i 7 ) . . . j k l 2 . ' = $ . .               ",
"                . . - . . 1 k m n . o p i + > q r s . . . . . . . . . . . . $ t u > + i p v . w x 4 : . . - . .                 ",
"                  . . . . . y z . A B + + C A . . D E F G H I J J I H K F L M . . N O + + B A . P 5 . . . . .                   ",
"                          . . . t i + ] Q . . R S T U V W X Y Z Z Y X W V `  .S ... . +.@.+ #.$.. . .                           ",
"                          . . %.> + &.*.. =.-.;.V X >.,.'.Z Z . . Z Z '.).!.~.V ;.{.].. ^./.(._.:.. .                           ",
"                        . . %.+ > <.. . [.}.V |.Z Z 1.. 2.3.4.. . 4.5.2.. 6.Z Z |.V }.[.. . 7.8.9.:.. .                         ",
"                      . . t > > 0.. a.b.U X c.d.e.Z f.. . . . . . . . . . f.Z g.h.i.X U b.a.. j.8._.$.. .                       ",
"                    . . A i + <.. k.l.m.n.Z o.. p.q.r.s.. t.u.v.w.x.. . y.z.q.A.. B.Z n.C.D.E.. F.9.G.H.. .                     ",
"                    . I.B + &.. a.l.J.K.L.Z M.N.. O.5.. P.v.Q.Q.R.S.. . . T.O.. N.M.Z U.V.J.D.W.. X.9.Y.Z..                     ",
"                  . . p + ] *.. {.m.K.d.`.L.Z  +. .+++. u.Q.Q.R.S.. S.x.. @+.+. #+Z U.$+d.V.C.b.. %+&+9.*+. .                   ",
"                  . ) i + Q . [.U n.U.$+. =+-+q.;+. . . v.Q.Q.x.. S.R.w.. . . ;+q.-+>+. `.L.n.U [.. ,+9.G.'+.                   ",
"                . . 7 + C . ].}.X Z Z U.=+)+Z Z !+~+{+. v.Q.Q.Q.x.R.Q.v.. ]+^+!+Z Z )+=+L.Z Z X }.].. /+9.(+. .                 ",
"                . < 8 > A . {.V c.B.M.Z -+Z Z Z Z _+:+. u.Q.Q.Q.Q.Q.Q.u.. <+-+Z Z Z Z -+Z M.[+c.V -.. }+_.G.|+.                 ",
"              . . [ + u . R ;.|.1+. N. +q.Z Z Z Z Z 5.. t.v.Q.Q.Q.Q.v.t.. 5.Z Z Z Z Z q.2+3+. 4+|.;.5+. 6+9.7+. .               ",
"              . . } + 8+. S V Z 9+A.. . ;+!+Z Z Z Z 0+a+. t.u.v.v.u.t.. b+0+Z Z Z Z c+d+. . e+e.Z V S . f+9.g+. .               ",
"              . ) * 9 $ D  .~.Z Z q.h+i+. ~+-+Z Z Z Z j+b+. . . . . . b+j+Z Z Z Z -+^+. .+O.q.Z Z X  .M k+l+8.'+.               ",
"              . ! + 0 . E ` >.1.f.q.Z m+n+o+Z Z Z Z Z Z 0+p+d+q+q+4.p+0+Z Z Z Z Z Z o+r+M.Z q.s+t+>.U u+. v+9.w+.               ",
"            . . ~ + a . F V ,.. . x+Z Z Z Z Z Z Z Z Z Z Z Z Z Z Z Z Z Z Z Z Z Z Z Z Z Z Z Z y+. . ,.V F . *+9.z+. .             ",
"            . . { + b . G W A+B+C+D+Z Z Z Z Z Z Z Z Z Z Z E+F+Z Z Z Z Z Z Z Z Z Z Z Z Z Z Z D+G+H+'.W I+. J+9.K+. .             ",
"            . . ] + L+. H X Z Z Z _+Z Z Z Z Z Z Z Z Z Z E+. M+N+O+P+0+Z Z Z Z Z Z Z Z Z Z Z _+Z Z Z X H . Q+9.R+. .             ",
"            . . / + S+. I Y Z Z Z Z Z Z Z Z Z Z Z Z Z Z F+M+. . . . P+Z Z Z Z Z Z Z Z Z Z Z Z Z Z Z Y T+. U+9.V+. .             ",
"            . . > + . . J Z . . . . . . Z Z Z Z Z Z Z Z Z N+. W+W+. X+Z Z Z Z Z Z Z Z Z . . . . . . Z Y+. ; 9.Z+. .             ",
"            . . > + . . J Z . . . . . . Z Z Z Z Z Z Z Z Z O+. `+`+. N+Z Z Z Z Z Z Z Z Z . . . . . . Z Y+. . 9. @. .             ",
"            . . / + S+. I Y Z Z Z Z Z Z Z Z Z Z Z Z Z Z Z P+. . . . M+F+Z Z Z Z Z Z Z Z Z Z Z Z Z Z Y T+. .@9.+@. .             ",
"            . . ] + L+. H X Z Z Z _+Z Z Z Z Z Z Z Z Z Z Z 0+@@X+N+M+. #@F+Z Z Z Z Z Z Z Z Z _+Z Z Z X $@. %@9.&@. .             ",
"            . . { + *@. K W A+B+C+D+Z Z Z Z Z Z Z Z Z Z Z Z Z Z Z F+#@. #@F+Z Z Z Z Z Z Z Z D+G+H+'.W I+. =@9.-@. .             ",
"            . . ~ + a . F V ,.. . x+Z Z Z Z Z Z Z Z Z Z Z Z Z Z Z Z F+#@. #@F+Z Z Z Z Z Z Z ;@. . ,.V >@. *+9.,@. .             ",
"              . ! + 0 . L ` >.1.f.q.Z m+n+o+Z Z Z Z Z Z Z Z Z Z Z Z Z F+#@. #@F+Z Z o+r+M.Z q.s+1.>.U '@. )@9.!@.               ",
"              . ) > 9 $ M  .X Z Z q.h+i+. ~+-+Z Z Z Z Z Z Z Z Z Z Z Z Z F+#@. #@F+-+~+. .+O.q.Z Z X ~@{@]@^@_./@.               ",
"              . . } + 8+. S V Z 9+A.. . ;+!+Z Z Z Z Z Z Z Z Z Z Z Z Z Z Z F+#@. #@F+c+d+. . e+e.Z V (@. $.9._@. .               ",
"              . . | + q . 5+;.|.1+. N. +q.Z Z Z Z Z Z Z Z Z Z Z Z Z Z Z Z Z :@<@. #@F+q.2+3+. 4+|.[@}@. v+9.|@. .               ",
"                . 1@i > A . -.V c.B.M.Z -+Z Z Z Z -+Z Z Z Z Z Z Z Z Z Z Z Z -+:@#@. #@F+Z M.[+c.V 2@. 3@_.4@5@.                 ",
"                . . 7 + C . ].}.X Z Z U.=+)+Z Z !+6@7@Z Z Z Z Z Z Z Z Z Z o+8@!+:@<@. 9@F+Z Z X 0@a@. b@9.c@. .                 ",
"                  . d@i * Q . [.U n.U.$+. =+-+q.e@. f@Z Z Z Z Z Z Z Z Z Z f@. ;+q.:@<@. g@L.n.U h@. i@9.l+/@.                   ",
"                  . . p + ] *.. {.m.K.j@`.L.Z k@. .+m+Z Z Z Z . . Z Z Z Z m+.+.  +Z :@l@d.V.m.m@. n@R+9.o@. .                   ",
"                    . v p@+ &.. a.l.J.K.L.Z M.q@. O.Z Z Z Z Z . . Z Z Z Z Z O.. q@M.Z U.V.J.r@s@. t@9.u@v@.                     ",
"                    . . w@i + <.. E.l.m.n.Z [+. x@q.q.y@z@_+Z . . Z -+A@;@q.q.A.. B.Z n.m.r@B@. C@9.^@%@. .                     ",
"                      . . t > > ' . W.{.U D@E@d.e.Z f.. F@Z Z . . Z Z F@. f.Z g.G@H@X U m@s@. I@_.Z+J@. .                       ",
"                        . . %.+ > K@. . [.}.L@|.Z Z 1.. M@Z Z . . Z Z M@. 1.Z Z |.V 0@N@. . C@_.8.O@. .                         ",
"                          . . %.P@Q@t@R@. ].-.;.V X >.S@'.Z Z . . Z Z '.T.T@X V [@2@a@. n@t@9.Z+O@. .                           ",
"                            . . $.4@9.R+i@. . 5+S  .U V W X Y Z Z Y X W V ` ~@(@}@. . i@R+9.^@U@. .                             ",
"                              . . H.Y.9.9.V@3@. . M L F I+H T+Y+Y+T+$@I+>@W@{@. . 3@b@9.9.u@%@. .                               ",
"                                . . X@*+G.9._.v+Y@Z@. . . . . . . . . . . . `@$.v+_.9.l+o@v@. .                                 ",
"                                  . . . '+(+G.9.9.l+ #*+=@%@.@. ; .@.#=@*+ #^@9.9.4@c@/@. . .                                   ",
"                                      . . . +#7+g+8.9.9.9.9.9.9.9.9.9.9.9.9._._@|@+#. . .                                       ",
"                                          . . . . '+!@z+K+R+V+Z+ @+@&@-@,@!@/@. . . .                                           ",
"                                              . . . . . . . . . . . . . . . . . .                                               ",
"                                                      . . . . . . . . . .                                                       ",
"                                                                                                                                ",
"                                                                                                                                "};
