/* XPM */
static const char * terminal_xpm[] = {
"32 32 23 1",
" 	c None",
".	c #000000",
"+	c #23679E",
"@	c #348ED8",
"#	c #1C5584",
"$	c #348DD7",
"%	c #338CD5",
"&	c #338AD3",
"*	c #348ED7",
"=	c #338CD6",
"-	c #338BD4",
";	c #328AD2",
">	c #3289D1",
",	c #348DD6",
"'	c #338BD3",
")	c #3289D2",
"!	c #338DD6",
"~	c #2B83CC",
"{	c #2676B8",
"]	c #12436C",
"^	c #2573B3",
"/	c #1D5F95",
"(	c #0F3655",
"                                ",
"                                ",
"                                ",
"                                ",
"                                ",
" .............................. ",
" .++++++++++++++++++++++++++++. ",
" .@+@@@@@@@@@@@@@@@@@@@@@@@@@@. ",
" #@+@@@@@@@@@@@@@@@@@@@@@@@@@@. ",
" #@+@@@@@@@@@@@@@@@@@@@@@@@$%&. ",
" .@.@@@@@@@@@@@@@@@@@@@*=-;>>>. ",
" .@.@@@@@@@@@@@@@@@@,-;>>>>>>>. ",
" .@.@@@@@@@@@@@@$%'>>>>>>>>>>>. ",
" .@.@@@@@@@@@=-;>>>>>>>>>>>>>>. ",
" .@+@@@@@$%&>>>>>>>>>>>>>>>>>>. ",
" .@@@$%')>>>>>>>>>>>>>>>>>>>>>. ",
" .!-;>>>>>>>>>>>>>>>>>>>>>>>>>. ",
" .>>>>>>>>>>>>>>>>>>>>>>>>>>>>. ",
" .>>>>>>>>>>>>>>>>>>>>>>>>>>>>. ",
" .............................. ",
" .~~~~~~~~~~~~~~~~~~~~~~~~~~~~. ",
" .~~~{]]{{]]{{]]{{]]{{]]{{]]{~. ",
" .~^^/((//((//((//((//((//((/~. ",
" .~^^/((//((//((//((//((//((/~~ ",
" .~~~{//{{//{{//{{//{{//{{//{~. ",
" .////////////////////////////. ",
" .............................. ",
"                                ",
"                                ",
"                                ",
"                                ",
"                                "};
